<svg width="40" height="36" viewBox="0 0 40 36" fill="none" xmlns="http://www.w3.org/2000/svg">
<path d="M18.8886 18.0001H25.2329C28.2328 18.0001 30.9271 15.736 31.1014 12.7027C31.1492 11.8784 31.0168 11.0535 30.7136 10.287C30.4104 9.52043 29.9439 8.83108 29.3473 8.26807C29.8573 7.30037 30.076 6.20255 29.9765 5.11033C29.7147 2.14946 27.0342 2.55318e-09 24.0968 2.55318e-09H18.8886C18.5939 2.55318e-09 18.3113 0.118527 18.103 0.329506C17.8946 0.540485 17.7775 0.826634 17.7775 1.125V16.875C17.7775 17.1734 17.8946 17.4596 18.103 17.6705C18.3113 17.8815 18.5939 18.0001 18.8886 18.0001ZM21.6663 3.93751H24.444C24.886 3.93751 25.3099 4.1153 25.6225 4.43177C25.935 4.74824 26.1106 5.17746 26.1106 5.62502C26.1106 6.07257 25.935 6.50179 25.6225 6.81826C25.3099 7.13473 24.886 7.31252 24.444 7.31252H21.6663V3.93751ZM21.6663 10.6875H25.5551C25.9971 10.6875 26.421 10.8653 26.7335 11.1818C27.0461 11.4983 27.2217 11.9275 27.2217 12.375C27.2217 12.8226 27.0461 13.2518 26.7335 13.5683C26.421 13.8848 25.9971 14.0625 25.5551 14.0625H21.6663V10.6875ZM10.7722 1.56446C10.6287 1.11021 10.3463 0.71389 9.96589 0.432694C9.58545 0.151499 9.12661 -2.27105e-05 8.65559 2.55318e-09H6.90009C6.42907 -2.27105e-05 5.97023 0.151499 5.58979 0.432694C5.20935 0.71389 4.927 1.11021 4.78349 1.56446L0.0412741 16.5748C-0.00440209 16.7418 -0.011355 16.9173 0.0209578 17.0874C0.0532705 17.2576 0.123975 17.4179 0.227557 17.5559C0.331139 17.6939 0.464796 17.8057 0.618105 17.8828C0.771414 17.9598 0.940228 17.9999 1.11138 18.0001H2.84258C3.08558 18.0001 3.32188 17.9194 3.51528 17.7704C3.70869 17.6215 3.84852 17.4124 3.91338 17.1753L4.74252 14.625H10.8132L11.6423 17.1753C11.7072 17.4124 11.847 17.6215 12.0404 17.7704C12.2338 17.9194 12.4701 18.0001 12.7131 18.0001H14.4443C14.6155 18.0001 14.7844 17.96 14.9378 17.883C15.0912 17.806 15.2249 17.6942 15.3286 17.5562C15.4323 17.4182 15.503 17.2579 15.5354 17.0876C15.5677 16.9174 15.5608 16.7419 15.5151 16.5748L10.7722 1.56446ZM6.20636 10.125L7.77784 5.29455L9.34932 10.125H6.20636ZM39.6775 19.4401L36.5381 16.2549C36.4355 16.1498 36.3134 16.0664 36.1787 16.0094C36.0441 15.9525 35.8996 15.9232 35.7537 15.9232C35.6078 15.9232 35.4633 15.9525 35.3287 16.0094C35.1941 16.0664 35.0719 16.1498 34.9694 16.2549L24.4488 26.9073L20.6011 23.0049C20.4985 22.8998 20.3763 22.8164 20.2417 22.7595C20.1071 22.7025 19.9626 22.6732 19.8167 22.6732C19.6708 22.6732 19.5263 22.7025 19.3917 22.7595C19.2571 22.8164 19.1349 22.8998 19.0324 23.0049L15.8866 26.1901C15.679 26.4009 15.5625 26.6865 15.5625 26.9843C15.5625 27.282 15.679 27.5676 15.8866 27.7784L23.6642 35.6682C23.7668 35.7733 23.889 35.8568 24.0237 35.9137C24.1584 35.9707 24.3029 36 24.4488 36C24.5948 36 24.7393 35.9707 24.874 35.9137C25.0087 35.8568 25.1309 35.7733 25.2335 35.6682L39.6775 21.0284C39.8849 20.8174 40.0012 20.5317 40.001 20.2339C40.0007 19.9362 39.8839 19.6507 39.6762 19.4401H39.6775Z" fill="white"/>
</svg>
