<svg width="200" height="70" viewBox="0 0 200 70" fill="none" xmlns="http://www.w3.org/2000/svg">
<g clip-path="url(#clip0)">
<rect width="200" height="70" rx="10" fill="#D1941C"/>
<rect width="200" height="65" rx="10" fill="#FAB837"/>
<path opacity="0.2" d="M0 10V30C0 17 6 0 30 0H10C4.47715 0 0 4.47715 0 10Z" fill="white"/>
<path opacity="0.2" d="M200 55L200 12C200 30 147.5 65 10 65L190 65C195.523 65 200 60.5228 200 55Z" fill="white"/>
<path d="M46.2278 19.1943C48.5976 19.1943 50.3408 20.4818 51.4573 23.0566L47.595 27.2949C47.0709 26.748 46.4671 26.4746 45.7835 26.4746C44.5758 26.4746 43.3226 27.5114 42.0237 29.585C40.9528 31.2939 40.2578 32.889 39.9388 34.3701C39.7793 35.0765 39.6995 35.7145 39.6995 36.2842C39.6995 37.8109 40.2578 38.859 41.3743 39.4287C41.7389 39.611 42.1263 39.7021 42.5364 39.7021C43.7213 39.7021 44.9632 38.8249 46.262 37.0703L47.3558 41.1377C45.0999 43.6442 42.8099 44.8975 40.4856 44.8975C38.1158 44.8975 36.3841 43.6442 35.2903 41.1377C34.6295 39.6794 34.2991 38.0501 34.2991 36.25C34.2991 34.9284 34.47 33.527 34.8118 32.0459C35.4954 29.0153 36.7942 26.2467 38.7083 23.7402C41.0097 20.7096 43.5162 19.1943 46.2278 19.1943ZM63.8618 18.2715C66.2772 18.2715 67.9862 19.6159 68.9888 22.3047C69.5129 23.6947 69.7749 25.2214 69.7749 26.8848C69.7749 28.4798 69.5356 30.2116 69.0571 32.0801C68.214 35.2702 66.7557 38.2096 64.6821 40.8984C62.1528 44.1797 59.4754 45.8203 56.6499 45.8203C54.2117 45.8203 52.48 44.4759 51.4546 41.7871C50.9533 40.4655 50.7026 38.9844 50.7026 37.3438C50.7026 35.7259 50.9533 33.9714 51.4546 32.0801C52.2977 28.8672 53.7446 25.9163 55.7954 23.2275C58.3247 19.9235 61.0135 18.2715 63.8618 18.2715ZM62.6313 26.748C61.3781 26.748 60.102 27.7734 58.8032 29.8242C57.755 31.4421 57.0259 33.0257 56.6157 34.5752C56.4106 35.3955 56.3081 36.1361 56.3081 36.7969C56.3081 37.7311 56.536 38.4945 56.9917 39.0869C57.5158 39.7477 58.245 40.0781 59.1792 40.0781C60.4552 40.0781 61.606 39.4059 62.6313 38.0615C63.4517 36.9906 64.0441 35.7259 64.4087 34.2676C64.8416 32.5586 64.9328 30.8724 64.6821 29.209C64.4087 27.5684 63.7251 26.748 62.6313 26.748ZM74.5915 20.9717L80.5046 19.7754C80.459 20.4818 80.4362 21.4844 80.4362 22.7832C80.4362 25.8822 80.5388 28.6051 80.7438 30.9521C80.8578 32.2965 81.0287 33.3789 81.2565 34.1992L83.5808 20.8691L89.4597 19.7754C87.0899 28.9128 85.5404 36.8311 84.8112 43.5303L79.4108 45.0342C79.388 44.9886 79.2399 44.5898 78.9665 43.8379L77.1892 38.7793C76.8929 37.959 76.722 37.4349 76.6765 37.207C76.1979 39.8958 75.822 42.5049 75.5485 45.0342L70.0798 46.6748L74.5915 20.9717ZM105.556 19.4336L105.35 25.791C103.755 25.8822 102.24 25.9961 100.805 26.1328C99.3007 32.4447 98.2867 38.2438 97.7626 43.5303L91.9862 45.0342L95.1308 26.8506C94.5155 26.9417 93.9003 27.0443 93.2851 27.1582L91.4735 27.5L91.0634 21.1084L105.556 19.4336ZM108.937 20.8691L114.816 19.7754C112.446 28.9128 110.896 36.8311 110.167 43.5303L104.733 45.0342L108.937 20.8691ZM119.017 20.9717L124.93 19.7754C124.884 20.4818 124.862 21.4844 124.862 22.7832C124.862 25.8822 124.964 28.6051 125.169 30.9521C125.283 32.2965 125.454 33.3789 125.682 34.1992L128.006 20.8691L133.885 19.7754C131.515 28.9128 129.966 36.8311 129.237 43.5303L123.836 45.0342C123.813 44.9886 123.665 44.5898 123.392 43.8379L121.615 38.7793C121.318 37.959 121.147 37.4349 121.102 37.207C120.623 39.8958 120.247 42.5049 119.974 45.0342L114.505 46.6748L119.017 20.9717ZM137.608 20.8691L143.453 19.7754C141.88 25.7454 140.718 31.1003 139.966 35.8398L143.213 34.4727L145.606 20.8691L151.451 19.7754C149.081 29.1178 147.543 37.0361 146.836 43.5303L141.368 45.0342L142.051 41.2402C140.137 42.0833 137.243 43.348 133.37 45.0342L137.608 20.8691ZM159.514 25.9619C159.332 26.6227 159.173 27.2721 159.036 27.9102L158.66 29.79L164.129 28.6279L163.821 33.3447C161.223 33.8005 159.184 34.1992 157.703 34.541C157.612 34.9967 157.532 35.4525 157.464 35.9082L157.224 37.2412L163.582 36.3184L163.137 42.6758C159.856 42.9492 155.698 43.7354 150.662 45.0342L154.729 20.5273L166.111 18.8867L165.667 25.21C163.434 25.415 161.383 25.6657 159.514 25.9619Z" fill="white"/>
<path d="M51.4573 23.0566L52.1965 23.7302L52.6321 23.2522L52.3748 22.6588L51.4573 23.0566ZM47.595 27.2949L46.873 27.9868L47.6134 28.7594L48.3341 27.9685L47.595 27.2949ZM42.0237 29.585L42.8711 30.116L42.8712 30.1158L42.0237 29.585ZM39.9388 34.3701L40.9143 34.5904L40.9163 34.5807L39.9388 34.3701ZM41.3743 39.4287L40.9198 40.3195L40.9271 40.3231L41.3743 39.4287ZM46.262 37.0703L47.2277 36.8106L46.6901 34.8113L45.4583 36.4753L46.262 37.0703ZM47.3558 41.1377L48.0991 41.8067L48.4626 41.4028L48.3215 40.878L47.3558 41.1377ZM35.2903 41.1377L36.207 40.7377L36.2012 40.725L35.2903 41.1377ZM34.8118 32.0459L35.7862 32.2708L35.7873 32.2659L34.8118 32.0459ZM38.7083 23.7402L39.5031 24.3471L39.5047 24.345L38.7083 23.7402ZM46.2278 20.1943C47.22 20.1943 48.0351 20.4596 48.7185 20.9643C49.4124 21.4768 50.0315 22.2821 50.5399 23.4545L52.3748 22.6588C51.7666 21.2563 50.9559 20.1304 49.9066 19.3555C48.8468 18.5728 47.6055 18.1943 46.2278 18.1943V20.1943ZM50.7182 22.3831L46.8559 26.6214L48.3341 27.9685L52.1965 23.7302L50.7182 22.3831ZM48.317 26.603C47.6268 25.8828 46.7706 25.4746 45.7835 25.4746V27.4746C46.1636 27.4746 46.5151 27.6133 46.873 27.9868L48.317 26.603ZM45.7835 25.4746C44.8772 25.4746 44.044 25.8665 43.3004 26.4817C42.561 27.0934 41.8568 27.9677 41.1763 29.0541L42.8712 30.1158C43.4895 29.1287 44.0614 28.4478 44.5752 28.0227C45.0848 27.6011 45.4821 27.4746 45.7835 27.4746V25.4746ZM41.1764 29.0539C40.0629 30.8307 39.3113 32.5342 38.9612 34.1596L40.9163 34.5807C41.2043 33.2438 41.8426 31.7572 42.8711 30.116L41.1764 29.0539ZM38.9633 34.1499C38.7917 34.9101 38.6995 35.6236 38.6995 36.2842H40.6995C40.6995 35.8054 40.7669 35.2429 40.9142 34.5904L38.9633 34.1499ZM38.6995 36.2842C38.6995 38.0882 39.389 39.5384 40.9198 40.3195L41.8288 38.5379C41.1266 38.1797 40.6995 37.5336 40.6995 36.2842H38.6995ZM40.9271 40.3231C41.4314 40.5753 41.972 40.7021 42.5364 40.7021V38.7021C42.2805 38.7021 42.0464 38.6467 41.8215 38.5343L40.9271 40.3231ZM42.5364 40.7021C44.2263 40.7021 45.7289 39.4712 47.0658 37.6653L45.4583 36.4753C44.1975 38.1785 43.2163 38.7021 42.5364 38.7021V40.7021ZM45.2963 37.33L46.3901 41.3974L48.3215 40.878L47.2277 36.8106L45.2963 37.33ZM46.6125 40.4687C44.4592 42.8613 42.4181 43.8975 40.4856 43.8975V45.8975C43.2016 45.8975 45.7406 44.4272 48.0991 41.8067L46.6125 40.4687ZM40.4856 43.8975C39.4873 43.8975 38.6726 43.6372 37.9957 43.1474C37.3097 42.651 36.7019 41.8722 36.2069 40.7378L34.3738 41.5376C34.9725 42.9097 35.7774 44.0108 36.8232 44.7676C37.8781 45.531 39.1142 45.8975 40.4856 45.8975V43.8975ZM36.2012 40.725C35.606 39.4115 35.2991 37.9255 35.2991 36.25H33.2991C33.2991 38.1747 33.653 39.9472 34.3795 41.5504L36.2012 40.725ZM35.2991 36.25C35.2991 35.0144 35.4589 33.6889 35.7862 32.2708L33.8374 31.821C33.4811 33.3651 33.2991 34.8424 33.2991 36.25H35.2991ZM35.7873 32.2659C36.4387 29.378 37.675 26.741 39.5031 24.3471L37.9135 23.1333C35.9134 25.7525 34.5521 28.6526 33.8363 31.8259L35.7873 32.2659ZM39.5047 24.345C41.698 21.4568 43.9421 20.1943 46.2278 20.1943V18.1943C43.0904 18.1943 40.3214 19.9625 37.9119 23.1355L39.5047 24.345ZM68.9888 22.3047L68.0518 22.6541L68.0531 22.6575L68.9888 22.3047ZM69.0571 32.0801L70.024 32.3356L70.0259 32.3282L69.0571 32.0801ZM64.6821 40.8984L63.8902 40.2878L63.8901 40.2879L64.6821 40.8984ZM51.4546 41.7871L50.5196 42.1418L50.5202 42.1434L51.4546 41.7871ZM51.4546 32.0801L52.4212 32.3363L52.4218 32.3339L51.4546 32.0801ZM55.7954 23.2275L55.0014 22.6197L55.0003 22.6211L55.7954 23.2275ZM58.8032 29.8242L59.6425 30.368L59.648 30.3593L58.8032 29.8242ZM56.6157 34.5752L55.6489 34.3193L55.6456 34.3327L56.6157 34.5752ZM56.9917 39.0869L56.1991 39.6966L56.2036 39.7025L56.2082 39.7083L56.9917 39.0869ZM62.6313 38.0615L61.8375 37.4534L61.8362 37.4551L62.6313 38.0615ZM64.4087 34.2676L63.4393 34.022L63.4385 34.025L64.4087 34.2676ZM64.6821 29.209L65.671 29.06L65.6698 29.0523L65.6685 29.0446L64.6821 29.209ZM63.8618 19.2715C64.8715 19.2715 65.6782 19.5476 66.3368 20.0657C67.0078 20.5936 67.5946 21.4281 68.0518 22.6541L69.9257 21.9553C69.3803 20.4925 68.6113 19.3104 67.5734 18.4938C66.523 17.6675 65.2674 17.2715 63.8618 17.2715V19.2715ZM68.0531 22.6575C68.5299 23.922 68.7749 25.3275 68.7749 26.8848H70.7749C70.7749 25.1152 70.4959 23.4673 69.9245 21.9519L68.0531 22.6575ZM68.7749 26.8848C68.7749 28.3809 68.5503 30.0283 68.0884 31.832L70.0259 32.3282C70.521 30.3949 70.7749 28.5788 70.7749 26.8848H68.7749ZM68.0903 31.8246C67.2823 34.882 65.8848 37.7014 63.8902 40.2878L65.474 41.5091C67.6265 38.7179 69.1458 35.6583 70.0239 32.3356L68.0903 31.8246ZM63.8901 40.2879C61.4583 43.4428 59.0407 44.8203 56.6499 44.8203V46.8203C59.9101 46.8203 62.8474 44.9166 65.4741 41.5089L63.8901 40.2879ZM56.6499 44.8203C55.6266 44.8203 54.8064 44.5428 54.1357 44.0221C53.4531 43.4922 52.8563 42.6562 52.3889 41.4308L50.5202 42.1434C51.0783 43.6068 51.86 44.7874 52.9092 45.6019C53.9702 46.4256 55.2351 46.8203 56.6499 46.8203V44.8203ZM52.3896 41.4325C51.9376 40.2408 51.7026 38.8824 51.7026 37.3438H49.7026C49.7026 39.0864 49.969 40.6902 50.5196 42.1418L52.3896 41.4325ZM51.7026 37.3438C51.7026 35.8282 51.9376 34.1608 52.4212 32.3363L50.488 31.8239C49.969 33.7819 49.7026 35.6236 49.7026 37.3438H51.7026ZM52.4218 32.3339C53.2308 29.2511 54.6184 26.4197 56.5905 23.834L55.0003 22.6211C52.8709 25.413 51.3646 28.4833 50.4873 31.8263L52.4218 32.3339ZM56.5895 23.8354C59.0206 20.6596 61.449 19.2715 63.8618 19.2715V17.2715C60.5781 17.2715 57.6289 19.1874 55.0014 22.6197L56.5895 23.8354ZM62.6313 25.748C60.8139 25.748 59.2775 27.2064 57.9584 29.2892L59.648 30.3593C60.9266 28.3404 61.9423 27.748 62.6313 27.748V25.748ZM57.964 29.2805C56.8696 30.9696 56.091 32.6495 55.649 34.3193L57.5824 34.8311C57.9607 33.4019 58.6404 31.9146 59.6425 30.368L57.964 29.2805ZM55.6456 34.3327C55.4259 35.2114 55.3081 36.0353 55.3081 36.7969H57.3081C57.3081 36.2369 57.3954 35.5796 57.5859 34.8177L55.6456 34.3327ZM55.3081 36.7969C55.3081 37.8955 55.5783 38.8896 56.1991 39.6966L57.7843 38.4772C57.4937 38.0994 57.3081 37.5667 57.3081 36.7969H55.3081ZM56.2082 39.7083C56.9441 40.6362 57.9772 41.0781 59.1792 41.0781V39.0781C58.5127 39.0781 58.0875 38.8592 57.7752 38.4655L56.2082 39.7083ZM59.1792 41.0781C60.8627 41.0781 62.2785 40.173 63.4265 38.668L61.8362 37.4551C60.9334 38.6388 60.0478 39.0781 59.1792 39.0781V41.0781ZM63.4252 38.6696C64.3377 37.4783 64.9849 36.0859 65.3788 34.5101L63.4385 34.025C63.1033 35.366 62.5656 36.5028 61.8375 37.4534L63.4252 38.6696ZM65.3781 34.5132C65.8421 32.6815 65.9424 30.8612 65.671 29.06L63.6933 29.358C63.9232 30.8836 63.8412 32.4356 63.4393 34.022L65.3781 34.5132ZM65.6685 29.0446C65.5175 28.1383 65.2346 27.3255 64.7326 26.7231C64.1955 26.0786 63.4667 25.748 62.6313 25.748V27.748C62.8898 27.748 63.0496 27.8276 63.1961 28.0035C63.3777 28.2214 63.5733 28.639 63.6957 29.3734L65.6685 29.0446ZM74.5915 20.9717L74.3932 19.9915L73.7245 20.1268L73.6066 20.7988L74.5915 20.9717ZM80.5046 19.7754L81.5025 19.8398L81.5866 18.5362L80.3063 18.7952L80.5046 19.7754ZM80.7438 30.9521L81.7403 30.8677L81.74 30.8651L80.7438 30.9521ZM81.2565 34.1992L80.293 34.4669L82.2417 34.371L81.2565 34.1992ZM83.5808 20.8691L83.3979 19.886L82.7149 20.0131L82.5956 20.6974L83.5808 20.8691ZM89.4597 19.7754L90.4276 20.0264L90.8223 18.5047L89.2768 18.7923L89.4597 19.7754ZM84.8112 43.5303L85.0795 44.4936L85.7321 44.3119L85.8054 43.6385L84.8112 43.5303ZM79.4108 45.0342L78.5164 45.4814L78.885 46.2187L79.6791 45.9975L79.4108 45.0342ZM78.9665 43.8379L78.023 44.1694L78.0267 44.1796L78.9665 43.8379ZM77.1892 38.7793L78.1327 38.4478L78.1297 38.4397L77.1892 38.7793ZM76.6765 37.207L77.657 37.0109L75.6919 37.0318L76.6765 37.207ZM75.5485 45.0342L75.8359 45.992L76.4714 45.8013L76.5427 45.1417L75.5485 45.0342ZM70.0798 46.6748L69.0948 46.5019L68.8146 48.0984L70.3671 47.6326L70.0798 46.6748ZM74.7898 21.9518L80.7029 20.7555L80.3063 18.7952L74.3932 19.9915L74.7898 21.9518ZM79.5067 19.711C79.459 20.4496 79.4362 21.4774 79.4362 22.7832H81.4362C81.4362 21.4913 81.459 20.5139 81.5025 19.8398L79.5067 19.711ZM79.4362 22.7832C79.4362 25.9028 79.5394 28.6559 79.7476 31.0392L81.74 30.8651C81.5381 28.5544 81.4362 25.8616 81.4362 22.7832H79.4362ZM79.7474 31.0366C79.8639 32.4115 80.0418 33.5624 80.293 34.4669L82.2201 33.9316C82.0156 33.1954 81.8516 32.1816 81.7403 30.8677L79.7474 31.0366ZM82.2417 34.371L84.5659 21.0409L82.5956 20.6974L80.2714 34.0275L82.2417 34.371ZM83.7637 21.8523L89.6426 20.7585L89.2768 18.7923L83.3979 19.886L83.7637 21.8523ZM88.4917 19.5243C86.1141 28.6916 84.5531 36.6599 83.8171 43.4221L85.8054 43.6385C86.5277 37.0022 88.0656 29.1339 90.4276 20.0264L88.4917 19.5243ZM84.543 42.5669L79.1426 44.0708L79.6791 45.9975L85.0795 44.4936L84.543 42.5669ZM80.3053 44.587C80.3266 44.6296 80.3332 44.6518 80.3036 44.5748C80.2843 44.5246 80.2566 44.4512 80.2201 44.3527C80.1472 44.1566 80.0428 43.8715 79.9063 43.4961L78.0267 44.1796C78.1637 44.5562 78.27 44.8465 78.3452 45.0491C78.4043 45.2082 78.4735 45.3956 78.5164 45.4814L80.3053 44.587ZM79.91 43.5064L78.1326 38.4478L76.2457 39.1108L78.023 44.1694L79.91 43.5064ZM78.1297 38.4397C77.8251 37.596 77.6848 37.1497 77.657 37.0109L75.6959 37.4031C75.7593 37.7201 75.9608 38.322 76.2486 39.1189L78.1297 38.4397ZM75.6919 37.0318C75.2097 39.7415 74.8304 42.3731 74.5543 44.9267L76.5427 45.1417C76.8136 42.6366 77.1862 40.0502 77.661 37.3822L75.6919 37.0318ZM75.2612 44.0764L69.7924 45.717L70.3671 47.6326L75.8359 45.992L75.2612 44.0764ZM71.0647 46.8477L75.5764 21.1446L73.6066 20.7988L69.0948 46.5019L71.0647 46.8477ZM105.556 19.4336L106.555 19.4658L106.592 18.3071L105.441 18.4402L105.556 19.4336ZM105.35 25.791L105.408 26.7894L106.32 26.7372L106.35 25.8233L105.35 25.791ZM100.805 26.1328L100.71 25.1373L99.9976 25.2051L99.8318 25.901L100.805 26.1328ZM97.7626 43.5303L98.0146 44.498L98.689 44.3224L98.7577 43.6289L97.7626 43.5303ZM91.9862 45.0342L91.0009 44.8638L90.7364 46.3929L92.2382 46.0019L91.9862 45.0342ZM95.1308 26.8506L96.1161 27.021L96.3517 25.6588L94.9842 25.8614L95.1308 26.8506ZM93.2851 27.1582L93.103 26.1749L93.0996 26.1755L93.2851 27.1582ZM91.4735 27.5L90.4756 27.564L90.548 28.6923L91.6589 28.4827L91.4735 27.5ZM91.0634 21.1084L90.9486 20.115L90.0046 20.2241L90.0654 21.1724L91.0634 21.1084ZM104.556 19.4014L104.351 25.7588L106.35 25.8233L106.555 19.4658L104.556 19.4014ZM105.293 24.7926C103.687 24.8844 102.159 24.9993 100.71 25.1373L100.899 27.1283C102.321 26.9929 103.824 26.8799 105.408 26.7894L105.293 24.7926ZM99.8318 25.901C98.3197 32.2475 97.2969 38.0918 96.7675 43.4316L98.7577 43.6289C99.2765 38.3958 100.282 32.6418 101.777 26.3646L99.8318 25.901ZM97.5106 42.5625L91.7343 44.0664L92.2382 46.0019L98.0146 44.498L97.5106 42.5625ZM92.9716 45.2046L96.1161 27.021L94.1454 26.6802L91.0009 44.8638L92.9716 45.2046ZM94.9842 25.8614C94.357 25.9543 93.7299 26.0588 93.103 26.1749L93.4671 28.1415C94.0706 28.0297 94.674 27.9292 95.2773 27.8398L94.9842 25.8614ZM93.0996 26.1755L91.2881 26.5173L91.6589 28.4827L93.4705 28.1409L93.0996 26.1755ZM92.4715 27.436L92.0613 21.0444L90.0654 21.1724L90.4756 27.564L92.4715 27.436ZM91.1782 22.1018L105.67 20.427L105.441 18.4402L90.9486 20.115L91.1782 22.1018ZM108.937 20.8691L108.754 19.886L108.071 20.0131L107.951 20.6977L108.937 20.8691ZM114.816 19.7754L115.783 20.0264L116.178 18.5047L114.633 18.7923L114.816 19.7754ZM110.167 43.5303L110.434 44.4941L111.088 44.3131L111.161 43.6385L110.167 43.5303ZM104.733 45.0342L103.747 44.8628L103.477 46.4193L104.999 45.998L104.733 45.0342ZM109.12 21.8523L114.998 20.7585L114.633 18.7923L108.754 19.886L109.12 21.8523ZM113.848 19.5243C111.47 28.6916 109.909 36.6599 109.173 43.4221L111.161 43.6385C111.884 37.0022 113.421 29.1339 115.783 20.0264L113.848 19.5243ZM109.9 42.5665L104.466 44.0704L104.999 45.998L110.434 44.4941L109.9 42.5665ZM105.718 45.2056L109.922 21.0405L107.951 20.6977L103.747 44.8628L105.718 45.2056ZM119.017 20.9717L118.819 19.9915L118.15 20.1268L118.032 20.7988L119.017 20.9717ZM124.93 19.7754L125.928 19.8398L126.012 18.5362L124.732 18.7952L124.93 19.7754ZM125.169 30.9521L126.166 30.8677L126.165 30.8651L125.169 30.9521ZM125.682 34.1992L124.718 34.4669L126.667 34.371L125.682 34.1992ZM128.006 20.8691L127.823 19.886L127.14 20.0131L127.021 20.6974L128.006 20.8691ZM133.885 19.7754L134.853 20.0264L135.248 18.5047L133.702 18.7923L133.885 19.7754ZM129.237 43.5303L129.505 44.4936L130.157 44.3119L130.231 43.6385L129.237 43.5303ZM123.836 45.0342L122.942 45.4814L123.31 46.2187L124.104 45.9975L123.836 45.0342ZM123.392 43.8379L122.448 44.1694L122.452 44.1796L123.392 43.8379ZM121.615 38.7793L122.558 38.4478L122.555 38.4397L121.615 38.7793ZM121.102 37.207L122.082 37.0109L120.117 37.0318L121.102 37.207ZM119.974 45.0342L120.261 45.992L120.897 45.8013L120.968 45.1417L119.974 45.0342ZM114.505 46.6748L113.52 46.5019L113.24 48.0984L114.793 47.6326L114.505 46.6748ZM119.215 21.9518L125.128 20.7555L124.732 18.7952L118.819 19.9915L119.215 21.9518ZM123.932 19.711C123.884 20.4496 123.862 21.4774 123.862 22.7832H125.862C125.862 21.4913 125.884 20.5139 125.928 19.8398L123.932 19.711ZM123.862 22.7832C123.862 25.9028 123.965 28.6559 124.173 31.0392L126.165 30.8651C125.964 28.5544 125.862 25.8616 125.862 22.7832H123.862ZM124.173 31.0366C124.289 32.4115 124.467 33.5624 124.718 34.4669L126.645 33.9316C126.441 33.1954 126.277 32.1816 126.166 30.8677L124.173 31.0366ZM126.667 34.371L128.991 21.0409L127.021 20.6974L124.697 34.0275L126.667 34.371ZM128.189 21.8523L134.068 20.7585L133.702 18.7923L127.823 19.886L128.189 21.8523ZM132.917 19.5243C130.54 28.6916 128.979 36.6599 128.242 43.4221L130.231 43.6385C130.953 37.0022 132.491 29.1339 134.853 20.0264L132.917 19.5243ZM128.968 42.5669L123.568 44.0708L124.104 45.9975L129.505 44.4936L128.968 42.5669ZM124.731 44.587C124.752 44.6296 124.759 44.6518 124.729 44.5748C124.71 44.5246 124.682 44.4512 124.645 44.3527C124.573 44.1566 124.468 43.8715 124.332 43.4961L122.452 44.1796C122.589 44.5562 122.695 44.8465 122.771 45.0491C122.83 45.2082 122.899 45.3956 122.942 45.4814L124.731 44.587ZM124.335 43.5064L122.558 38.4478L120.671 39.1108L122.448 44.1694L124.335 43.5064ZM122.555 38.4397C122.25 37.596 122.11 37.1497 122.082 37.0109L120.121 37.4031C120.185 37.7201 120.386 38.322 120.674 39.1189L122.555 38.4397ZM120.117 37.0318C119.635 39.7415 119.256 42.3731 118.98 44.9267L120.968 45.1417C121.239 42.6366 121.612 40.0502 122.086 37.3822L120.117 37.0318ZM119.687 44.0764L114.218 45.717L114.793 47.6326L120.261 45.992L119.687 44.0764ZM115.49 46.8477L120.002 21.1446L118.032 20.7988L113.52 46.5019L115.49 46.8477ZM137.608 20.8691L137.424 19.8862L136.743 20.0137L136.623 20.6964L137.608 20.8691ZM143.453 19.7754L144.42 20.0301L144.822 18.5017L143.269 18.7925L143.453 19.7754ZM139.966 35.8398L138.979 35.6831L138.697 37.4594L140.354 36.7615L139.966 35.8398ZM143.213 34.4727L143.601 35.3943L144.104 35.1828L144.198 34.6459L143.213 34.4727ZM145.606 20.8691L145.422 19.8862L144.741 20.0136L144.621 20.6959L145.606 20.8691ZM151.451 19.7754L152.42 20.0213L152.805 18.5047L151.267 18.7925L151.451 19.7754ZM146.836 43.5303L147.102 44.4945L147.757 44.3142L147.831 43.6384L146.836 43.5303ZM141.368 45.0342L140.384 44.8569L140.102 46.4194L141.633 45.9984L141.368 45.0342ZM142.051 41.2402L143.035 41.4176L143.369 39.5672L141.648 40.3251L142.051 41.2402ZM133.37 45.0342L132.385 44.8614L132.063 46.6934L133.769 45.9511L133.37 45.0342ZM137.792 21.8521L143.637 20.7583L143.269 18.7925L137.424 19.8862L137.792 21.8521ZM142.486 19.5207C140.907 25.5144 139.737 30.9028 138.979 35.6831L140.954 35.9965C141.699 31.2977 142.854 25.9764 144.42 20.0301L142.486 19.5207ZM140.354 36.7615L143.601 35.3943L142.825 33.551L139.578 34.9182L140.354 36.7615ZM144.198 34.6459L146.591 21.0424L144.621 20.6959L142.228 34.2994L144.198 34.6459ZM145.79 21.8521L151.635 20.7583L151.267 18.7925L145.422 19.8862L145.79 21.8521ZM150.481 19.5295C148.105 28.8981 146.555 36.8654 145.842 43.4221L147.831 43.6384C148.53 37.2069 150.057 29.3376 152.42 20.0213L150.481 19.5295ZM146.571 42.5661L141.103 44.07L141.633 45.9984L147.102 44.4945L146.571 42.5661ZM142.352 45.2115L143.035 41.4176L141.067 41.0629L140.384 44.8569L142.352 45.2115ZM141.648 40.3251C139.736 41.1673 136.844 42.4312 132.971 44.1173L133.769 45.9511C137.643 44.2648 140.538 42.9994 142.454 42.1554L141.648 40.3251ZM134.355 45.2069L138.593 21.0419L136.623 20.6964L132.385 44.8614L134.355 45.2069ZM159.514 25.9619L159.358 24.9742L158.722 25.0751L158.55 25.696L159.514 25.9619ZM159.036 27.9102L158.058 27.7006L158.055 27.714L159.036 27.9102ZM158.66 29.79L157.679 29.5939L157.381 31.0841L158.868 30.7682L158.66 29.79ZM164.129 28.6279L165.126 28.693L165.212 27.3753L163.921 27.6498L164.129 28.6279ZM163.821 33.3447L163.994 34.3297L164.768 34.1939L164.819 33.4098L163.821 33.3447ZM157.703 34.541L157.478 33.5666L156.849 33.7118L156.722 34.3449L157.703 34.541ZM157.464 35.9082L158.448 36.0849L158.45 36.0707L158.453 36.0565L157.464 35.9082ZM157.224 37.2412L156.24 37.0645L155.995 38.4302L157.368 38.2308L157.224 37.2412ZM163.582 36.3184L164.579 36.3881L164.666 35.1505L163.438 35.3287L163.582 36.3184ZM163.137 42.6758L163.22 43.6723L164.075 43.6011L164.135 42.7455L163.137 42.6758ZM150.662 45.0342L149.675 44.8705L149.424 46.3862L150.912 46.0025L150.662 45.0342ZM154.729 20.5273L154.587 19.5376L153.862 19.6419L153.743 20.3636L154.729 20.5273ZM166.111 18.8867L167.109 18.9568L167.195 17.7201L165.968 17.8969L166.111 18.8867ZM165.667 25.21L165.758 26.2058L166.605 26.128L166.664 25.2801L165.667 25.21ZM158.55 25.696C158.363 26.3745 158.199 27.0428 158.058 27.7006L160.014 28.1197C160.146 27.5015 160.301 26.8709 160.478 26.2278L158.55 25.696ZM158.055 27.714L157.679 29.5939L159.64 29.9862L160.016 28.1063L158.055 27.714ZM158.868 30.7682L164.336 29.6061L163.921 27.6498L158.452 28.8119L158.868 30.7682ZM163.131 28.5629L162.823 33.2796L164.819 33.4098L165.126 28.693L163.131 28.5629ZM163.648 32.3598C161.044 32.8167 158.984 33.219 157.478 33.5666L157.928 35.5154C159.384 35.1794 161.403 34.7842 163.994 34.3297L163.648 32.3598ZM156.722 34.3449C156.628 34.8163 156.545 35.288 156.475 35.7599L158.453 36.0565C158.518 35.6169 158.595 35.1771 158.683 34.7371L156.722 34.3449ZM156.479 35.7315L156.24 37.0645L158.209 37.4179L158.448 36.0849L156.479 35.7315ZM157.368 38.2308L163.725 37.308L163.438 35.3287L157.081 36.2516L157.368 38.2308ZM162.584 36.2486L162.14 42.6061L164.135 42.7455L164.579 36.3881L162.584 36.2486ZM163.054 41.6792C159.694 41.9592 155.475 42.76 150.412 44.0659L150.912 46.0025C155.92 44.7107 160.018 43.9392 163.22 43.6723L163.054 41.6792ZM151.648 45.1979L155.716 20.6911L153.743 20.3636L149.675 44.8705L151.648 45.1979ZM154.872 21.5171L166.254 19.8765L165.968 17.8969L154.587 19.5376L154.872 21.5171ZM165.113 18.8166L164.669 25.1399L166.664 25.2801L167.109 18.9568L165.113 18.8166ZM165.575 24.2142C163.324 24.4209 161.251 24.674 159.358 24.9742L159.671 26.9496C161.514 26.6573 163.543 26.4092 165.758 26.2058L165.575 24.2142Z" fill="#D1941C"/>
</g>
<defs>
<clipPath id="clip0">
<path d="M0 0H200V70H0V0Z" fill="white"/>
</clipPath>
</defs>
</svg>
