<svg width="160" height="70" viewBox="0 0 160 70" fill="none" xmlns="http://www.w3.org/2000/svg">
<rect width="160" height="70" rx="10" fill="#D1941C"/>
<rect width="160" height="65" rx="10" fill="#FAB837"/>
<path d="M18.8091 38.2909C20.6545 38.2909 22.3909 37.7182 23.5818 36.8636L22.2273 34.5727C21.3909 35.1909 20.2091 35.5364 18.9909 35.5364C15.8273 35.5364 13.8364 33.3545 13.8364 30.5091C13.8364 27.6636 15.8273 25.4818 18.9909 25.4818C20.2091 25.4818 21.3909 25.8273 22.2273 26.4455L23.5818 24.1545C22.3909 23.3 20.6545 22.7273 18.8091 22.7273C14.1818 22.7273 10.8 26.1636 10.8 30.5091C10.8 34.8545 14.1818 38.2909 18.8091 38.2909ZM28.6648 38V31.7091H34.5012V38H37.3012V22.9909H34.5012V29.2455H28.6648V22.9909H25.8648V38H28.6648ZM48.7805 38V35.5364H43.3078V31.7091H48.5624V29.2455H43.3078V25.4636H48.7805V23H40.5078V38H48.7805ZM59.0466 38.2909C60.892 38.2909 62.6284 37.7182 63.8193 36.8636L62.4648 34.5727C61.6284 35.1909 60.4466 35.5364 59.2284 35.5364C56.0648 35.5364 54.0739 33.3545 54.0739 30.5091C54.0739 27.6636 56.0648 25.4818 59.2284 25.4818C60.4466 25.4818 61.6284 25.8273 62.4648 26.4455L63.8193 24.1545C62.6284 23.3 60.892 22.7273 59.0466 22.7273C54.4193 22.7273 51.0375 26.1636 51.0375 30.5091C51.0375 34.8545 54.4193 38.2909 59.0466 38.2909ZM66.3205 23V38H69.1205V31.6182L75.1842 38H79.0569L71.6751 30.2364L78.166 23H74.7387L69.1205 29.3091V23H66.3205ZM83.032 23L87.3683 38H90.4865L93.432 28.4091L96.3774 38H99.4956L103.832 23H100.723L97.7956 34.1727L94.4865 23H92.3774L89.0683 34.1727L86.141 23H83.032ZM104.077 30.5091C104.077 34.8364 107.441 38.2909 111.641 38.2909C115.841 38.2909 119.205 34.8364 119.205 30.5091C119.205 26.1818 115.841 22.7273 111.641 22.7273C107.441 22.7273 104.077 26.1818 104.077 30.5091ZM107.096 30.5091C107.096 27.5636 109.005 25.4273 111.641 25.4273C114.277 25.4273 116.186 27.5636 116.186 30.5091C116.186 33.4545 114.277 35.5909 111.641 35.5909C109.005 35.5909 107.096 33.4545 107.096 30.5091ZM121.705 23V38H124.505V32.2909H125.296L129.669 38H133.224L128.251 31.9C130.369 31.4273 131.724 29.9 131.724 27.5455C131.724 24.6364 129.651 23 126.705 23H121.705ZM124.505 25.2364H125.851C127.524 25.2364 128.787 25.9182 128.787 27.5455C128.787 29.1636 127.524 29.8636 125.851 29.8636H124.505V25.2364ZM138.723 38C142.996 38 146.287 34.7273 146.287 30.5C146.287 26.2727 142.978 23 138.723 23H134.669V38H138.723ZM138.414 25.5091C141.196 25.5091 143.278 27.6364 143.278 30.5C143.278 33.3636 141.196 35.4909 138.414 35.4909H137.469V25.5091H138.414Z" fill="white"/>
</svg>
