<svg width="70" height="70" viewBox="0 0 70 70" fill="none" xmlns="http://www.w3.org/2000/svg">
<rect width="70" height="70" rx="10" fill="#D1941C"/>
<rect width="70" height="65" rx="10" fill="#FAB837"/>
<g clip-path="url(#clip0)">
<path d="M33.8886 32.0001H40.2329C43.2328 32.0001 45.9271 29.736 46.1014 26.7027C46.1492 25.8784 46.0168 25.0535 45.7136 24.287C45.4104 23.5204 44.9439 22.8311 44.3473 22.2681C44.8573 21.3004 45.076 20.2025 44.9765 19.1103C44.7147 16.1495 42.0342 14 39.0968 14H33.8886C33.5939 14 33.3113 14.1185 33.103 14.3295C32.8946 14.5405 32.7775 14.8266 32.7775 15.125V30.875C32.7775 31.1734 32.8946 31.4596 33.103 31.6705C33.3113 31.8815 33.5939 32.0001 33.8886 32.0001ZM36.6663 17.9375H39.444C39.886 17.9375 40.3099 18.1153 40.6225 18.4318C40.935 18.7482 41.1106 19.1775 41.1106 19.625C41.1106 20.0726 40.935 20.5018 40.6225 20.8183C40.3099 21.1347 39.886 21.3125 39.444 21.3125H36.6663V17.9375ZM36.6663 24.6875H40.5551C40.9971 24.6875 41.421 24.8653 41.7335 25.1818C42.0461 25.4983 42.2217 25.9275 42.2217 26.375C42.2217 26.8226 42.0461 27.2518 41.7335 27.5683C41.421 27.8848 40.9971 28.0625 40.5551 28.0625H36.6663V24.6875ZM25.7722 15.5645C25.6287 15.1102 25.3463 14.7139 24.9659 14.4327C24.5854 14.1515 24.1266 14 23.6556 14H21.9001C21.4291 14 20.9702 14.1515 20.5898 14.4327C20.2094 14.7139 19.927 15.1102 19.7835 15.5645L15.0413 30.5748C14.9956 30.7418 14.9886 30.9173 15.021 31.0874C15.0533 31.2576 15.124 31.4179 15.2276 31.5559C15.3311 31.6939 15.4648 31.8057 15.6181 31.8828C15.7714 31.9598 15.9402 31.9999 16.1114 32.0001H17.8426C18.0856 32.0001 18.3219 31.9194 18.5153 31.7704C18.7087 31.6215 18.8485 31.4124 18.9134 31.1753L19.7425 28.625H25.8132L26.6423 31.1753C26.7072 31.4124 26.847 31.6215 27.0404 31.7704C27.2338 31.9194 27.4701 32.0001 27.7131 32.0001H29.4443C29.6155 32.0001 29.7844 31.96 29.9378 31.883C30.0912 31.806 30.2249 31.6942 30.3286 31.5562C30.4323 31.4182 30.503 31.2579 30.5354 31.0876C30.5677 30.9174 30.5608 30.7419 30.5151 30.5748L25.7722 15.5645ZM21.2064 24.125L22.7778 19.2945L24.3493 24.125H21.2064ZM54.6775 33.4401L51.5381 30.2549C51.4355 30.1498 51.3134 30.0664 51.1787 30.0094C51.0441 29.9525 50.8996 29.9232 50.7537 29.9232C50.6078 29.9232 50.4633 29.9525 50.3287 30.0094C50.1941 30.0664 50.0719 30.1498 49.9694 30.2549L39.4488 40.9073L35.6011 37.0049C35.4985 36.8998 35.3763 36.8164 35.2417 36.7595C35.1071 36.7025 34.9626 36.6732 34.8167 36.6732C34.6708 36.6732 34.5263 36.7025 34.3917 36.7595C34.2571 36.8164 34.1349 36.8998 34.0324 37.0049L30.8866 40.1901C30.679 40.4009 30.5625 40.6865 30.5625 40.9843C30.5625 41.282 30.679 41.5676 30.8866 41.7784L38.6642 49.6682C38.7668 49.7733 38.889 49.8568 39.0237 49.9137C39.1584 49.9707 39.3029 50 39.4488 50C39.5948 50 39.7393 49.9707 39.874 49.9137C40.0087 49.8568 40.1309 49.7733 40.2335 49.6682L54.6775 35.0284C54.8849 34.8174 55.0012 34.5317 55.001 34.2339C55.0007 33.9362 54.8839 33.6507 54.6762 33.4401H54.6775Z" fill="white"/>
</g>
<defs>
<clipPath id="clip0">
<rect x="15" y="12" width="40" height="40" fill="white"/>
</clipPath>
</defs>
</svg>
