<svg width="70" height="70" viewBox="0 0 70 70" fill="none" xmlns="http://www.w3.org/2000/svg">
<rect width="70" height="70" rx="10" fill="#D1941C"/>
<rect width="70" height="65" rx="10" fill="#FAB837"/>
<path d="M35.8333 21.1667C35.6122 21.1667 35.4003 21.2545 35.244 21.4107C35.0877 21.567 34.9999 21.779 34.9999 22C34.9999 22.221 35.0877 22.433 35.244 22.5893C35.4003 22.7455 35.6122 22.8333 35.8333 22.8333C37.6383 22.8333 39.1066 24.3017 39.1066 26.1067C39.1066 26.3277 39.1944 26.5396 39.3507 26.6959C39.5069 26.8522 39.7189 26.94 39.9399 26.94C40.1609 26.94 40.3729 26.8522 40.5292 26.6959C40.6855 26.5396 40.7733 26.3277 40.7733 26.1067C40.7715 24.797 40.2505 23.5416 39.3244 22.6155C38.3984 21.6895 37.1429 21.1684 35.8333 21.1667ZM35.8333 13.6667C28.9399 13.6667 23.3333 19.2733 23.3333 26.1667C23.3333 28.6433 24.0666 31.0367 25.4566 33.1083L25.5899 33.3333C28.6316 37.6767 29.1666 39.05 29.1666 40.3333V45.3333C29.1666 45.7754 29.3422 46.1993 29.6547 46.5118C29.9673 46.8244 30.3912 47 30.8333 47H34.1666C34.1666 47.4333 34.3499 47.8667 34.6499 48.1833C34.9666 48.4833 35.3999 48.6667 35.8333 48.6667C36.2666 48.6667 36.6999 48.4833 37.0166 48.1833C37.3166 47.8667 37.4999 47.4333 37.4999 47H40.8333C41.2753 47 41.6992 46.8244 42.0118 46.5118C42.3243 46.1993 42.4999 45.7754 42.4999 45.3333V40.3333C42.4999 39.03 43.0316 37.65 46.0533 33.335C47.5359 31.2386 48.3324 28.7343 48.3333 26.1667C48.3333 19.2733 42.7266 13.6667 35.8333 13.6667ZM39.1666 43.6667H32.4999V42H39.1666V43.6667ZM43.3249 31.4217C40.8816 34.91 39.7533 36.9033 39.3499 38.6667H37.4999V35.3333C37.4999 34.8913 37.3243 34.4674 37.0118 34.1548C36.6992 33.8423 36.2753 33.6667 35.8333 33.6667C35.3912 33.6667 34.9673 33.8423 34.6547 34.1548C34.3422 34.4674 34.1666 34.8913 34.1666 35.3333V38.6667H32.3116C31.9116 36.95 30.8149 35 28.4683 31.6333L28.3399 31.4183C27.2521 29.8832 26.6674 28.0482 26.6666 26.1667C26.6666 21.1117 30.7783 17 35.8333 17C40.8883 17 44.9999 21.1117 44.9999 26.1667C44.9983 28.0494 44.4131 29.8853 43.3249 31.4217Z" fill="white"/>
</svg>
