<svg width="40" height="40" viewBox="0 0 40 40" fill="none" xmlns="http://www.w3.org/2000/svg">
<path d="M37.7778 16.6667H34.0422C33.6874 15.1689 33.0939 13.7381 32.2844 12.4289L34.9278 9.78556C35.1342 9.57919 35.298 9.33418 35.4097 9.06451C35.5215 8.79483 35.579 8.50579 35.579 8.21389C35.579 7.92199 35.5215 7.63294 35.4097 7.36327C35.298 7.0936 35.1342 6.84859 34.9278 6.64222L33.3567 5.07111C32.9399 4.65451 32.3748 4.42048 31.7856 4.42048C31.1963 4.42048 30.6312 4.65451 30.2144 5.07111L27.5711 7.71444C26.2618 6.90558 24.8309 6.31246 23.3333 5.95778V2.22222C23.3333 1.63285 23.0992 1.06762 22.6825 0.650874C22.2657 0.234126 21.7005 0 21.1111 0L18.8889 0C18.2995 0 17.7343 0.234126 17.3175 0.650874C16.9008 1.06762 16.6667 1.63285 16.6667 2.22222V5.95778C15.1689 6.31264 13.7381 6.90615 12.4289 7.71556L9.78667 5.07222C9.36994 4.65562 8.80481 4.42159 8.21556 4.42159C7.6263 4.42159 7.06117 4.65562 6.64444 5.07222L5.07222 6.64333C4.65568 7.06025 4.4216 7.62542 4.42139 8.21477C4.42119 8.80412 4.65486 9.36946 5.07111 9.78667L7.71444 12.43C6.90559 13.7389 6.31246 15.1694 5.95778 16.6667H2.22222C1.63285 16.6667 1.06762 16.9008 0.650874 17.3175C0.234126 17.7343 0 18.2995 0 18.8889L0 21.1111C0 21.7005 0.234126 22.2657 0.650874 22.6825C1.06762 23.0992 1.63285 23.3333 2.22222 23.3333H5.95778C6.31284 24.8306 6.90634 26.2611 7.71556 27.57L5.07222 30.2133C4.20556 31.08 4.20556 32.4889 5.07333 33.3567L6.64444 34.9278C7.51111 35.7944 8.91889 35.7944 9.78667 34.9278L12.43 32.2844C13.739 33.0943 15.1699 33.6878 16.6678 34.0422V37.7778C16.6678 38.3671 16.9019 38.9324 17.3187 39.3491C17.7354 39.7659 18.3006 40 18.89 40H21.1122C21.7016 40 22.2668 39.7659 22.6836 39.3491C23.1003 38.9324 23.3344 38.3671 23.3344 37.7778V34.0422C24.8318 33.6872 26.2622 33.0937 27.5711 32.2844L30.2144 34.9278C30.6312 35.3444 31.1963 35.5784 31.7856 35.5784C32.3748 35.5784 32.9399 35.3444 33.3567 34.9278L34.9278 33.3567C35.1342 33.1503 35.298 32.9053 35.4097 32.6356C35.5215 32.3659 35.579 32.0769 35.579 31.785C35.579 31.4931 35.5215 31.2041 35.4097 30.9344C35.298 30.6647 35.1342 30.4197 34.9278 30.2133L32.2844 27.57C33.0943 26.261 33.6878 24.8301 34.0422 23.3322H37.7778C38.3671 23.3322 38.9324 23.0981 39.3491 22.6813C39.7659 22.2646 40 21.6994 40 21.11V18.8878C39.9997 18.2986 39.7654 17.7337 39.3487 17.3171C38.932 16.9006 38.367 16.6667 37.7778 16.6667ZM20 28.8889C17.6425 28.8889 15.3816 27.9524 13.7146 26.2854C12.0476 24.6184 11.1111 22.3575 11.1111 20C11.1111 17.6425 12.0476 15.3816 13.7146 13.7146C15.3816 12.0476 17.6425 11.1111 20 11.1111C22.3575 11.1111 24.6184 12.0476 26.2854 13.7146C27.9524 15.3816 28.8889 17.6425 28.8889 20C28.8889 22.3575 27.9524 24.6184 26.2854 26.2854C24.6184 27.9524 22.3575 28.8889 20 28.8889Z" fill="white"/>
</svg>
