<svg width="26" height="36" viewBox="0 0 26 36" fill="none" xmlns="http://www.w3.org/2000/svg">
<path d="M12.8333 8.16666C12.6122 8.16666 12.4003 8.25446 12.244 8.41074C12.0877 8.56702 11.9999 8.77898 11.9999 9C11.9999 9.22101 12.0877 9.43297 12.244 9.58925C12.4003 9.74553 12.6122 9.83333 12.8333 9.83333C14.6383 9.83333 16.1066 11.3017 16.1066 13.1067C16.1066 13.3277 16.1944 13.5396 16.3507 13.6959C16.5069 13.8522 16.7189 13.94 16.9399 13.94C17.1609 13.94 17.3729 13.8522 17.5292 13.6959C17.6855 13.5396 17.7733 13.3277 17.7733 13.1067C17.7715 11.797 17.2505 10.5416 16.3244 9.6155C15.3984 8.68946 14.1429 8.16843 12.8333 8.16666ZM12.8333 0.666664C5.93992 0.666664 0.333252 6.27333 0.333252 13.1667C0.333252 15.6433 1.06659 18.0367 2.45659 20.1083L2.58992 20.3333C5.63159 24.6767 6.16658 26.05 6.16658 27.3333V32.3333C6.16658 32.7754 6.34218 33.1993 6.65474 33.5118C6.9673 33.8244 7.39122 34 7.83325 34H11.1666C11.1666 34.4333 11.3499 34.8667 11.6499 35.1833C11.9666 35.4833 12.3999 35.6667 12.8333 35.6667C13.2666 35.6667 13.6999 35.4833 14.0166 35.1833C14.3166 34.8667 14.4999 34.4333 14.4999 34H17.8333C18.2753 34 18.6992 33.8244 19.0118 33.5118C19.3243 33.1993 19.4999 32.7754 19.4999 32.3333V27.3333C19.4999 26.03 20.0316 24.65 23.0533 20.335C24.5359 18.2386 25.3324 15.7343 25.3333 13.1667C25.3333 6.27333 19.7266 0.666664 12.8333 0.666664ZM16.1666 30.6667H9.49992V29H16.1666V30.6667ZM20.3249 18.4217C17.8816 21.91 16.7533 23.9033 16.3499 25.6667H14.4999V22.3333C14.4999 21.8913 14.3243 21.4674 14.0118 21.1548C13.6992 20.8423 13.2753 20.6667 12.8333 20.6667C12.3912 20.6667 11.9673 20.8423 11.6547 21.1548C11.3422 21.4674 11.1666 21.8913 11.1666 22.3333V25.6667H9.31159C8.91158 23.95 7.81492 22 5.46825 18.6333L5.33992 18.4183C4.25206 16.8831 3.6674 15.0482 3.66659 13.1667C3.66659 8.11166 7.77825 4 12.8333 4C17.8883 4 21.9999 8.11166 21.9999 13.1667C21.9983 15.0494 21.4131 16.8853 20.3249 18.4217Z" fill="white"/>
</svg>
