<svg width="350" height="67.01492309570312" xmlns="http://www.w3.org/2000/svg">
 <defs>
  <clipPath id="clip0">
   <rect id="svg_1" fill="white" height="28" width="124" y="18" x="113"/>
  </clipPath>
 </defs>
 <g class="currentLayer">
  <title>Layer 1</title>
  <rect stroke="#fab837" stroke-width="4" x="5.000015" y="4" class="selected" id="svg_3" fill="#ffffff" rx="10" height="58.999999" width="338.999973"/>
  <g stroke="null" id="svg_7">
   <path stroke="null" id="svg_6" fill="#fab837" d="m26.000027,22.057137c-0.244322,0 -0.478478,0.097022 -0.651194,0.269716c-0.172716,0.172694 -0.269738,0.406916 -0.269738,0.651139c0,0.244234 0.097022,0.478456 0.269738,0.65115c0.172716,0.172694 0.406872,0.269716 0.651194,0.269716c1.994578,0 3.617093,1.622581 3.617093,3.617159c0,0.244211 0.097022,0.478367 0.269738,0.651083c0.172606,0.172716 0.406872,0.269738 0.651083,0.269738c0.244211,0 0.478478,-0.097022 0.651194,-0.269738c0.172716,-0.172716 0.269738,-0.406872 0.269738,-0.651083c-0.001989,-1.447257 -0.577709,-2.834511 -1.601077,-3.857867c-1.023257,-1.023312 -2.410622,-1.599055 -3.857768,-1.601011zm0,-8.28772c-7.617387,0 -13.812922,6.195535 -13.812922,13.8129c0,2.736716 0.810362,5.381493 2.346353,7.670672l0.147334,0.248632c3.361135,4.799584 3.952314,6.317121 3.952314,7.735205l0,5.525147c0,0.488533 0.194043,0.956955 0.539431,1.302277c0.345388,0.345432 0.813832,0.539475 1.302288,0.539475l3.68345,0c0,0.478809 0.202552,0.957729 0.534061,1.307581c0.349963,0.331509 0.828772,0.534171 1.307692,0.534171c0.478809,0 0.957618,-0.202662 1.307581,-0.534171c0.331509,-0.349852 0.534061,-0.828772 0.534061,-1.307581l3.683505,0c0.488423,0 0.956845,-0.194043 1.302277,-0.539475c0.345322,-0.345322 0.539365,-0.813744 0.539365,-1.302277l0,-5.525147c0,-1.440185 0.587544,-2.965125 3.926611,-7.733327c1.638317,-2.316584 2.518472,-5.083909 2.519467,-7.921182c0,-7.617365 -6.195568,-13.8129 -13.812867,-13.8129zm3.683394,33.150914l-7.366877,0l0,-1.841752l7.366877,0l0,1.841752zm4.595044,-13.531084c-2.699918,3.854674 -3.946723,6.057329 -4.392492,8.005938l-2.044304,0l0,-3.683505c0,-0.488423 -0.194043,-0.956845 -0.539365,-1.302277c-0.345432,-0.345322 -0.813854,-0.539365 -1.302277,-0.539365c-0.488533,0 -0.956955,0.194043 -1.302388,0.539365c-0.345322,0.345432 -0.539365,0.813854 -0.539365,1.302277l0,3.683505l-2.04984,0c-0.442023,-1.897004 -1.653864,-4.051811 -4.247004,-7.772113l-0.141808,-0.237581c-1.202117,-1.696331 -1.848184,-3.724059 -1.849079,-5.803172c0,-5.585957 4.543505,-10.129462 10.129484,-10.129462c5.585923,0 10.129362,4.543505 10.129362,10.129462c-0.001768,2.080439 -0.648431,4.109162 -1.850924,5.806929z"/>
  </g>
 </g>
 <g>
  <title>Layer 2</title>
  <rect fill="none" y="0" x="0" height="100%" width="100%" id="backgroundrect"/>
 </g>
 <g>
  <title>background</title>
  <rect fill="none" id="canvas_background" height="402" width="582" y="-1" x="-1"/>
 </g>
</svg>