<svg width="154" height="70" viewBox="0 0 154 70" fill="none" xmlns="http://www.w3.org/2000/svg">
<rect width="154" height="70" rx="10" fill="#D1941C"/>
<rect width="154" height="65" rx="10" fill="#FAB837"/>
<path d="M10.4545 35.9182C11.5 37.2818 13.6364 38.2909 15.9455 38.2909C19.0273 38.2909 21.2364 36.6182 21.2364 33.7455C21.2364 31.3727 19.5182 30.2273 16.6545 29.1364C14.7091 28.4 14.0455 27.8091 14.0455 26.9818C14.0455 26.0727 14.8091 25.2818 16.1545 25.2818C17.2091 25.2818 18.2818 25.7273 19.0545 26.3273L20.4091 24.3273C19.5545 23.4636 17.9091 22.7273 16.1909 22.7273C13.2273 22.7273 11.3091 24.7636 11.3091 27.0455C11.3091 28.9 12.4636 30.1909 15.2 31.2636C17.4727 32.1636 18.1909 32.7545 18.1909 33.8091C18.1909 34.9818 17.2 35.7 15.8364 35.7C14.5273 35.7 13.1364 35.0455 11.9909 33.9818L10.4545 35.9182ZM23.3094 30.5091C23.3094 34.8364 26.673 38.2909 30.873 38.2909C35.073 38.2909 38.4366 34.8364 38.4366 30.5091C38.4366 26.1818 35.073 22.7273 30.873 22.7273C26.673 22.7273 23.3094 26.1818 23.3094 30.5091ZM26.3276 30.5091C26.3276 27.5636 28.2366 25.4273 30.873 25.4273C33.5094 25.4273 35.4185 27.5636 35.4185 30.5091C35.4185 33.4545 33.5094 35.5909 30.873 35.5909C28.2366 35.5909 26.3276 33.4545 26.3276 30.5091ZM49.2375 38V35.5364H43.7375V23H40.9375V38H49.2375ZM49.6109 23L55.9018 38H58.1018L64.3927 23H61.229L57.0018 33.7909L52.7745 23H49.6109ZM74.1993 38V35.5364H68.7266V31.7091H73.9811V29.2455H68.7266V25.4636H74.1993V23H65.9266V38H74.1993ZM79.5749 23L83.9113 38H87.0295L89.9749 28.4091L92.9204 38H96.0386L100.375 23H97.2658L94.3386 34.1727L91.0295 23H88.9204L85.6113 34.1727L82.684 23H79.5749ZM100.62 30.5091C100.62 34.8364 103.984 38.2909 108.184 38.2909C112.384 38.2909 115.748 34.8364 115.748 30.5091C115.748 26.1818 112.384 22.7273 108.184 22.7273C103.984 22.7273 100.62 26.1818 100.62 30.5091ZM103.638 30.5091C103.638 27.5636 105.548 25.4273 108.184 25.4273C110.82 25.4273 112.729 27.5636 112.729 30.5091C112.729 33.4545 110.82 35.5909 108.184 35.5909C105.548 35.5909 103.638 33.4545 103.638 30.5091ZM118.248 23V38H121.048V32.2909H121.839L126.212 38H129.767L124.794 31.9C126.912 31.4273 128.267 29.9 128.267 27.5455C128.267 24.6364 126.194 23 123.248 23H118.248ZM121.048 25.2364H122.394C124.067 25.2364 125.33 25.9182 125.33 27.5455C125.33 29.1636 124.067 29.8636 122.394 29.8636H121.048V25.2364ZM135.266 38C139.539 38 142.83 34.7273 142.83 30.5C142.83 26.2727 139.521 23 135.266 23H131.212V38H135.266ZM134.957 25.5091C137.739 25.5091 139.821 27.6364 139.821 30.5C139.821 33.3636 137.739 35.4909 134.957 35.4909H134.012V25.5091H134.957Z" fill="white"/>
</svg>
