<svg width="200" height="70" viewBox="0 0 200 70" fill="none" xmlns="http://www.w3.org/2000/svg">
<g clip-path="url(#clip0)">
<rect width="200" height="70" rx="10" fill="#D1941C"/>
<rect width="200" height="65" rx="10" fill="#FAB837"/>
<path opacity="0.2" d="M0 10V30C0 17 6 0 30 0H10C4.47715 0 0 4.47715 0 10Z" fill="white"/>
<path opacity="0.2" d="M200 55L200 12C200 30 147.5 65 10 65L190 65C195.523 65 200 60.5228 200 55Z" fill="white"/>
<path d="M40.423 26.9189C39.6939 27.1924 38.828 27.5228 37.8254 27.9102L35.2619 28.9014C35.2619 27.8304 34.9657 27.2949 34.3732 27.2949C33.5301 27.2949 32.687 27.7734 31.8439 28.7305C31.2515 29.4368 31.0008 30.1204 31.092 30.7812C31.1604 31.2142 31.5933 31.4307 32.3908 31.4307C32.8238 31.4307 33.3934 31.3623 34.0998 31.2256C35.0796 31.0205 35.9455 30.918 36.6975 30.918C38.6115 30.918 39.7281 31.5788 40.0471 32.9004C40.1382 33.3105 40.1838 33.7435 40.1838 34.1992C40.1838 35.6576 39.6369 37.2298 38.5432 38.916C37.1304 41.1263 35.148 42.9834 32.5959 44.4873C31.2515 45.2848 29.9299 45.6836 28.6311 45.6836C27.4462 45.6836 26.2841 45.3532 25.1447 44.6924C25.7144 43.3252 26.6258 41.3086 27.8791 38.6426C28.6083 39.1439 29.383 39.3945 30.2033 39.3945C30.5679 39.3945 30.9439 39.3376 31.3313 39.2236C32.0376 39.0413 32.7098 38.7793 33.3479 38.4375C34.2593 37.9362 34.715 37.4235 34.715 36.8994C34.715 36.3298 34.2479 36.0449 33.3137 36.0449C32.6757 36.0449 31.7414 36.1816 30.5109 36.4551C29.3033 36.7057 28.3804 36.8311 27.7424 36.8311C26.8993 36.8311 26.2499 36.6715 25.7941 36.3525C24.9055 35.7601 24.5409 34.8372 24.7004 33.584C24.9966 31.0547 26.6258 28.1266 29.5881 24.7998C32.6187 21.3818 35.2277 19.5931 37.4152 19.4336C39.5344 19.2969 40.5939 20.8919 40.5939 24.2188C40.5939 25.0163 40.537 25.9163 40.423 26.9189ZM46.4701 20.8691L52.3148 19.7754C50.7426 25.7454 49.5805 31.1003 48.8285 35.8398L52.0756 34.4727L54.4682 20.8691L60.3129 19.7754C57.9431 29.1178 56.405 37.0361 55.6986 43.5303L50.2299 45.0342L50.9135 41.2402C48.9994 42.0833 46.1055 43.348 42.2318 45.0342L46.4701 20.8691ZM63.7281 20.835C67.3056 19.764 70.2337 19.2285 72.5123 19.2285C75.5885 19.2285 77.1152 20.2995 77.0924 22.4414C77.0696 25.5176 75.1327 28.6051 71.2818 31.7041C71.6008 32.57 72.9225 35.293 75.2467 39.873C74.0618 40.9668 72.273 42.5732 69.8805 44.6924L66.2232 35.2588H66.1891C65.6422 38.2438 65.232 41.001 64.9586 43.5303L59.5582 45.0342C59.6038 44.5329 59.8544 43.0176 60.3102 40.4883L63.7281 20.835ZM68.0348 26.2354C67.8297 27.0101 67.6474 27.7848 67.4879 28.5596L67.0094 30.8838C67.8069 30.4736 68.593 29.9382 69.3678 29.2773C70.2564 28.5026 70.8489 27.762 71.1451 27.0557C71.2591 26.8506 71.316 26.6569 71.316 26.4746C71.316 25.9733 70.9856 25.7227 70.3248 25.7227C69.8007 25.7227 69.0374 25.8936 68.0348 26.2354ZM80.4734 20.835C84.0509 19.764 86.979 19.2285 89.2576 19.2285C92.3338 19.2285 93.8605 20.2995 93.8377 22.4414C93.8149 25.5176 91.8781 28.6051 88.0272 31.7041C88.3462 32.57 89.6678 35.293 91.992 39.873C90.8071 40.9668 89.0184 42.5732 86.6258 44.6924L82.9686 35.2588H82.9344C82.3875 38.2438 81.9773 41.001 81.7039 43.5303L76.3035 45.0342C76.3491 44.5329 76.5997 43.0176 77.0555 40.4883L80.4734 20.835ZM84.7801 26.2354C84.575 27.0101 84.3927 27.7848 84.2332 28.5596L83.7547 30.8838C84.5522 30.4736 85.3384 29.9382 86.1131 29.2773C87.0018 28.5026 87.5942 27.762 87.8904 27.0557C88.0044 26.8506 88.0613 26.6569 88.0613 26.4746C88.0613 25.9733 87.7309 25.7227 87.0701 25.7227C86.546 25.7227 85.7827 25.8936 84.7801 26.2354ZM101.867 25.9619C101.685 26.6227 101.525 27.2721 101.389 27.9102L101.013 29.79L106.481 28.6279L106.174 33.3447C103.576 33.8005 101.537 34.1992 100.056 34.541C99.9645 34.9967 99.8848 35.4525 99.8164 35.9082L99.5771 37.2412L105.935 36.3184L105.49 42.6758C102.209 42.9492 98.0505 43.7354 93.0146 45.0342L97.082 20.5273L108.464 18.8867L108.02 25.21C105.786 25.415 103.736 25.6657 101.867 25.9619ZM113.178 20.9717L119.091 19.7754C119.045 20.4818 119.023 21.4844 119.023 22.7832C119.023 25.8822 119.125 28.6051 119.33 30.9521C119.444 32.2965 119.615 33.3789 119.843 34.1992L122.167 20.8691L128.046 19.7754C125.676 28.9128 124.127 36.8311 123.398 43.5303L117.997 45.0342C117.974 44.9886 117.826 44.5898 117.553 43.8379L115.776 38.7793C115.479 37.959 115.308 37.4349 115.263 37.207C114.784 39.8958 114.408 42.5049 114.135 45.0342L108.666 46.6748L113.178 20.9717ZM131.188 20.835C133.808 19.9691 136.03 19.5361 137.853 19.5361C139.904 19.5361 141.465 20.0716 142.536 21.1426C144.017 22.6693 144.757 24.5264 144.757 26.7139C144.757 27.5114 144.655 28.3545 144.45 29.2432C143.561 33.2536 141.465 36.7627 138.161 39.7705C134.857 42.7555 131.177 44.5101 127.121 45.0342C127.166 44.5329 127.405 43.0404 127.838 40.5566L130.573 24.834C130.96 22.487 131.165 21.154 131.188 20.835ZM136.076 26.4746C135.027 30.9408 134.23 35.1676 133.683 39.1553C135.05 37.8564 136.269 36.3525 137.34 34.6436C138.662 32.5472 139.323 30.7471 139.323 29.2432C139.323 27.3063 138.24 26.3835 136.076 26.4746ZM153.436 25.9619C153.254 26.6227 153.094 27.2721 152.958 27.9102L152.582 29.79L158.05 28.6279L157.743 33.3447C155.145 33.8005 153.106 34.1992 151.625 34.541C151.533 34.9967 151.454 35.4525 151.385 35.9082L151.146 37.2412L157.504 36.3184L157.059 42.6758C153.778 42.9492 149.619 43.7354 144.584 45.0342L148.651 20.5273L160.033 18.8867L159.588 25.21C157.355 25.415 155.305 25.6657 153.436 25.9619ZM164.2 20.835C167.777 19.764 170.706 19.2285 172.984 19.2285C176.06 19.2285 177.587 20.2995 177.564 22.4414C177.541 25.5176 175.605 28.6051 171.754 31.7041C172.073 32.57 173.394 35.293 175.719 39.873C174.534 40.9668 172.745 42.5732 170.352 44.6924L166.695 35.2588H166.661C166.114 38.2438 165.704 41.001 165.43 43.5303L160.03 45.0342C160.076 44.5329 160.326 43.0176 160.782 40.4883L164.2 20.835ZM168.507 26.2354C168.302 27.0101 168.119 27.7848 167.96 28.5596L167.481 30.8838C168.279 30.4736 169.065 29.9382 169.84 29.2773C170.728 28.5026 171.321 27.762 171.617 27.0557C171.731 26.8506 171.788 26.6569 171.788 26.4746C171.788 25.9733 171.457 25.7227 170.797 25.7227C170.273 25.7227 169.509 25.8936 168.507 26.2354Z" fill="white"/>
<path d="M40.423 26.9189L40.7742 27.8553L41.3475 27.6403L41.4167 27.0319L40.423 26.9189ZM37.8254 27.9102L37.465 26.9774L37.4647 26.9775L37.8254 27.9102ZM35.2619 28.9014H34.2619V30.3602L35.6226 29.8341L35.2619 28.9014ZM31.8439 28.7305L31.0936 28.0694L31.0856 28.0786L31.0778 28.0879L31.8439 28.7305ZM31.092 30.7812L30.1014 30.9179L30.1027 30.9276L30.1042 30.9372L31.092 30.7812ZM34.0998 31.2256L34.2898 32.2074L34.2973 32.2059L34.3047 32.2044L34.0998 31.2256ZM40.0471 32.9004L41.0233 32.6835L41.0213 32.6746L41.0192 32.6658L40.0471 32.9004ZM38.5432 38.916L37.7042 38.3718L37.7006 38.3775L38.5432 38.916ZM32.5959 44.4873L32.0882 43.6258L32.0857 43.6273L32.5959 44.4873ZM25.1447 44.6924L24.2217 44.3078L23.8843 45.1174L24.643 45.5574L25.1447 44.6924ZM27.8791 38.6426L28.4456 37.8185L27.4751 37.1513L26.9741 38.2172L27.8791 38.6426ZM31.3313 39.2236L31.0814 38.2554L31.0652 38.2595L31.0491 38.2643L31.3313 39.2236ZM33.3479 38.4375L33.8201 39.319L33.8298 39.3137L33.3479 38.4375ZM30.5109 36.4551L30.7142 37.4343L30.7279 37.4313L30.5109 36.4551ZM25.7941 36.3525L26.3676 35.5333L26.3583 35.5268L26.3488 35.5205L25.7941 36.3525ZM24.7004 33.584L25.6924 33.7102L25.6936 33.7003L24.7004 33.584ZM29.5881 24.7998L30.3349 25.4648L30.3363 25.4632L29.5881 24.7998ZM37.4152 19.4336L37.3509 18.4356L37.3425 18.4362L37.4152 19.4336ZM40.0719 25.9826C39.3388 26.2576 38.4696 26.5892 37.465 26.9774L38.1858 28.843C39.1864 28.4564 40.049 28.1272 40.7742 27.8553L40.0719 25.9826ZM37.4647 26.9775L34.9013 27.9687L35.6226 29.8341L38.186 28.8429L37.4647 26.9775ZM36.2619 28.9014C36.2619 28.3064 36.1853 27.7015 35.9148 27.2125C35.7712 26.9529 35.5645 26.7113 35.2781 26.5388C34.9902 26.3653 34.6769 26.2949 34.3732 26.2949V28.2949C34.3658 28.2949 34.3118 28.2915 34.2459 28.2518C34.1818 28.2132 34.1602 28.1725 34.1647 28.1806C34.1724 28.1944 34.1994 28.2519 34.223 28.3799C34.2462 28.5058 34.2619 28.6769 34.2619 28.9014H36.2619ZM34.3732 26.2949C33.1223 26.2949 32.0287 27.008 31.0936 28.0694L32.5943 29.3915C33.3454 28.5389 33.938 28.2949 34.3732 28.2949V26.2949ZM31.0778 28.0879C30.3757 28.925 29.9586 29.883 30.1014 30.9179L32.0826 30.6446C32.0431 30.3579 32.1273 29.9487 32.6101 29.3731L31.0778 28.0879ZM30.1042 30.9372C30.1946 31.5095 30.5505 31.9276 31.0208 32.1627C31.4381 32.3714 31.9254 32.4307 32.3908 32.4307V30.4307C32.2345 30.4307 32.1178 30.4199 32.0343 30.4052C31.9933 30.398 31.9636 30.3904 31.9433 30.3841C31.9231 30.3779 31.9147 30.3736 31.9152 30.3739C31.9175 30.3751 31.9587 30.3967 32.0032 30.4543C32.0501 30.5151 32.0725 30.5795 32.0798 30.6253L30.1042 30.9372ZM32.3908 32.4307C32.9155 32.4307 33.5561 32.3494 34.2898 32.2074L33.9098 30.2438C33.2308 30.3752 32.732 30.4307 32.3908 30.4307V32.4307ZM34.3047 32.2044C35.2378 32.0091 36.0327 31.918 36.6975 31.918V29.918C35.8584 29.918 34.9215 30.0319 33.8949 30.2468L34.3047 32.2044ZM36.6975 31.918C37.5548 31.918 38.1135 32.0684 38.4611 32.2742C38.7747 32.4598 38.9755 32.7227 39.075 33.135L41.0192 32.6658C40.7997 31.7564 40.2826 31.0282 39.4797 30.553C38.7108 30.0979 37.7542 29.918 36.6975 29.918V31.918ZM39.0709 33.1173C39.1449 33.4505 39.1838 33.8104 39.1838 34.1992H41.1838C41.1838 33.6766 41.1315 33.1706 41.0233 32.6835L39.0709 33.1173ZM39.1838 34.1992C39.1838 35.4042 38.7312 36.7885 37.7042 38.3718L39.3821 39.4602C40.5426 37.6712 41.1838 35.9109 41.1838 34.1992H39.1838ZM37.7006 38.3775C36.3829 40.439 34.5225 42.1913 32.0882 43.6258L33.1036 45.3488C35.7735 43.7755 37.8779 41.8136 39.3858 39.4546L37.7006 38.3775ZM32.0857 43.6273C30.8642 44.3519 29.7169 44.6836 28.6311 44.6836V46.6836C30.1428 46.6836 31.6388 46.2178 33.1061 45.3474L32.0857 43.6273ZM28.6311 44.6836C27.6415 44.6836 26.6508 44.4099 25.6464 43.8274L24.643 45.5574C25.9173 46.2965 27.2508 46.6836 28.6311 46.6836V44.6836ZM26.0678 45.077C26.6286 43.7311 27.5323 41.7309 28.7841 39.068L26.9741 38.2172C25.7194 40.8862 24.8002 42.9193 24.2217 44.3078L26.0678 45.077ZM27.3126 39.4666C28.1947 40.0731 29.1646 40.3945 30.2033 40.3945V38.3945C29.6014 38.3945 29.0219 38.2147 28.4456 37.8185L27.3126 39.4666ZM30.2033 40.3945C30.6731 40.3945 31.1442 40.321 31.6134 40.183L31.0491 38.2643C30.7436 38.3541 30.4628 38.3945 30.2033 38.3945V40.3945ZM31.5811 40.1919C32.3642 39.9898 33.1111 39.6988 33.8201 39.319L32.8756 37.556C32.3086 37.8598 31.7111 38.0929 31.0814 38.2554L31.5811 40.1919ZM33.8298 39.3137C34.3392 39.0335 34.7885 38.715 35.1207 38.3414C35.4599 37.9597 35.715 37.474 35.715 36.8994H33.715C33.715 36.8489 33.7423 36.8816 33.6258 37.0126C33.5023 37.1517 33.2679 37.3402 32.8659 37.5613L33.8298 39.3137ZM35.715 36.8994C35.715 36.2834 35.4313 35.7376 34.8853 35.4047C34.4197 35.1208 33.8499 35.0449 33.3137 35.0449V37.0449C33.4994 37.0449 33.6344 37.0593 33.7276 37.0783C33.8221 37.0975 33.8515 37.1168 33.8441 37.1123C33.8301 37.1038 33.7857 37.0706 33.75 37.0052C33.7153 36.9418 33.715 36.896 33.715 36.8994H35.715ZM33.3137 35.0449C32.5624 35.0449 31.5409 35.2018 30.294 35.4789L30.7279 37.4313C31.9419 37.1615 32.789 37.0449 33.3137 37.0449V35.0449ZM30.3077 35.4759C29.1172 35.723 28.2753 35.8311 27.7424 35.8311V37.8311C28.4855 37.8311 29.4893 37.6884 30.7142 37.4342L30.3077 35.4759ZM27.7424 35.8311C27.0051 35.8311 26.589 35.6883 26.3676 35.5333L25.2207 37.1718C25.9108 37.6548 26.7935 37.8311 27.7424 37.8311V35.8311ZM26.3488 35.5205C26.0604 35.3282 25.8859 35.1059 25.7843 34.8486C25.6785 34.5811 25.6282 34.2144 25.6924 33.7102L23.7084 33.4577C23.6131 34.2068 23.6653 34.9282 23.9242 35.5835C24.1871 36.2491 24.6392 36.7844 25.2394 37.1846L26.3488 35.5205ZM25.6936 33.7003C25.9539 31.4776 27.4188 28.7399 30.3349 25.4648L28.8412 24.1348C25.8329 27.5134 24.0393 30.6318 23.7072 33.4677L25.6936 33.7003ZM30.3363 25.4632C31.8192 23.7908 33.1685 22.5524 34.3833 21.7196C35.6025 20.8837 36.6321 20.4934 37.488 20.4309L37.3425 18.4362C36.0109 18.5333 34.6422 19.1171 33.2524 20.07C31.8581 21.0259 30.3876 22.3908 28.8399 24.1364L30.3363 25.4632ZM37.4796 20.4315C38.2292 20.3832 38.6593 20.6186 38.9663 21.0807C39.3331 21.6328 39.5939 22.6241 39.5939 24.2188H41.5939C41.5939 22.4865 41.325 21.0169 40.6322 19.974C39.8796 18.8411 38.7204 18.3473 37.3509 18.4357L37.4796 20.4315ZM39.5939 24.2188C39.5939 24.9702 39.5402 25.8316 39.4294 26.806L41.4167 27.0319C41.5338 26.0011 41.5939 25.0623 41.5939 24.2188H39.5939ZM46.4701 20.8691L46.2862 19.8862L45.6049 20.0137L45.4852 20.6964L46.4701 20.8691ZM52.3148 19.7754L53.2819 20.0301L53.6844 18.5017L52.1309 18.7925L52.3148 19.7754ZM48.8285 35.8398L47.8409 35.6831L47.5591 37.4594L49.2166 36.7615L48.8285 35.8398ZM52.0756 34.4727L52.4636 35.3943L52.966 35.1828L53.0605 34.6459L52.0756 34.4727ZM54.4682 20.8691L54.2842 19.8862L53.6033 20.0136L53.4833 20.6959L54.4682 20.8691ZM60.3129 19.7754L61.2822 20.0213L61.6669 18.5047L60.129 18.7925L60.3129 19.7754ZM55.6986 43.5303L55.9638 44.4945L56.6193 44.3142L56.6928 43.6384L55.6986 43.5303ZM50.2299 45.0342L49.2457 44.8569L48.9642 46.4194L50.495 45.9984L50.2299 45.0342ZM50.9135 41.2402L51.8976 41.4176L52.231 39.5672L50.5104 40.3251L50.9135 41.2402ZM42.2318 45.0342L41.2469 44.8614L40.9256 46.6934L42.631 45.9511L42.2318 45.0342ZM46.6541 21.8521L52.4988 20.7583L52.1309 18.7925L46.2862 19.8862L46.6541 21.8521ZM51.3478 19.5207C49.7693 25.5144 48.5993 30.9028 47.8409 35.6831L49.8162 35.9965C50.5617 31.2977 51.7158 25.9764 53.2819 20.0301L51.3478 19.5207ZM49.2166 36.7615L52.4636 35.3943L51.6875 33.551L48.4405 34.9182L49.2166 36.7615ZM53.0605 34.6459L55.453 21.0424L53.4833 20.6959L51.0907 34.2994L53.0605 34.6459ZM54.6521 21.8521L60.4968 20.7583L60.129 18.7925L54.2842 19.8862L54.6521 21.8521ZM59.3436 19.5295C56.9672 28.8981 55.4177 36.8654 54.7045 43.4221L56.6928 43.6384C57.3923 37.2069 58.919 29.3376 61.2822 20.0213L59.3436 19.5295ZM55.4335 42.5661L49.9647 44.07L50.495 45.9984L55.9638 44.4945L55.4335 42.5661ZM51.214 45.2115L51.8976 41.4176L49.9293 41.0629L49.2457 44.8569L51.214 45.2115ZM50.5104 40.3251C48.5984 41.1673 45.7061 42.4312 41.8327 44.1173L42.631 45.9511C46.5049 44.2648 49.4004 42.9994 51.3166 42.1554L50.5104 40.3251ZM43.2168 45.2069L47.4551 21.0419L45.4852 20.6964L41.2469 44.8614L43.2168 45.2069ZM63.7281 20.835L63.4413 19.877L62.8489 20.0543L62.7429 20.6636L63.7281 20.835ZM77.0924 22.4414L76.0924 22.4308L76.0924 22.434L77.0924 22.4414ZM71.2818 31.7041L70.6549 30.925L70.0951 31.3755L70.3435 32.0498L71.2818 31.7041ZM75.2467 39.873L75.925 40.6079L76.4807 40.0949L76.1384 39.4205L75.2467 39.873ZM69.8805 44.6924L68.9481 45.0539L69.4676 46.3939L70.5435 45.441L69.8805 44.6924ZM66.2232 35.2588L67.1556 34.8973L66.9081 34.2588H66.2232V35.2588ZM66.1891 35.2588V34.2588H65.3556L65.2054 35.0786L66.1891 35.2588ZM64.9586 43.5303L65.2269 44.4936L65.8799 44.3117L65.9528 43.6378L64.9586 43.5303ZM59.5582 45.0342L58.5623 44.9436L58.4312 46.3861L59.8265 45.9975L59.5582 45.0342ZM60.3102 40.4883L61.2943 40.6656L61.2954 40.6596L60.3102 40.4883ZM68.0348 26.2354L67.7121 25.2888L67.2051 25.4617L67.0681 25.9795L68.0348 26.2354ZM67.4879 28.5596L68.4674 28.7612L67.4879 28.5596ZM67.0094 30.8838L66.0299 30.6821L65.6086 32.7287L67.4667 31.7731L67.0094 30.8838ZM69.3678 29.2773L70.0168 30.0382L70.0249 30.0311L69.3678 29.2773ZM71.1451 27.0557L70.271 26.57L70.2442 26.6182L70.2229 26.6689L71.1451 27.0557ZM64.0149 21.793C67.5506 20.7345 70.3728 20.2285 72.5123 20.2285V18.2285C70.0946 18.2285 67.0606 18.7935 63.4413 19.877L64.0149 21.793ZM72.5123 20.2285C73.966 20.2285 74.8726 20.4873 75.3902 20.8504C75.8402 21.1661 76.1009 21.6327 76.0924 22.4308L78.0923 22.452C78.1066 21.1082 77.6154 19.9683 76.5387 19.2131C75.5296 18.5052 74.1348 18.2285 72.5123 18.2285V20.2285ZM76.0924 22.434C76.0729 25.0668 74.4128 27.901 70.6549 30.925L71.9088 32.4832C75.8527 29.3093 78.0663 25.9683 78.0924 22.4488L76.0924 22.434ZM70.3435 32.0498C70.6882 32.9853 72.0462 35.7759 74.3549 40.3256L76.1384 39.4205C73.7988 34.81 72.5135 32.1546 72.2202 31.3584L70.3435 32.0498ZM74.5684 39.1382C73.3913 40.2248 71.6088 41.8257 69.2174 43.9438L70.5435 45.441C72.9373 43.3208 74.7323 41.7088 75.925 40.6079L74.5684 39.1382ZM70.8129 44.3309L67.1556 34.8973L65.2909 35.6203L68.9481 45.0539L70.8129 44.3309ZM66.2232 34.2588H66.1891V36.2588H66.2232V34.2588ZM65.2054 35.0786C64.655 38.0833 64.2409 40.865 63.9644 43.4228L65.9528 43.6378C66.2232 41.1369 66.6294 38.4043 67.1727 35.439L65.2054 35.0786ZM64.6903 42.5669L59.2899 44.0708L59.8265 45.9975L65.2269 44.4936L64.6903 42.5669ZM60.5541 45.1247C60.5947 44.6785 60.8344 43.2179 61.2943 40.6656L59.326 40.311C58.8744 42.8173 58.6129 44.3873 58.5623 44.9436L60.5541 45.1247ZM61.2954 40.6596L64.7133 21.0063L62.7429 20.6636L59.3249 40.3169L61.2954 40.6596ZM67.0681 25.9795C66.8583 26.7719 66.6717 27.5647 66.5084 28.3579L68.4674 28.7612C68.6231 28.0049 68.8011 27.2483 69.0015 26.4912L67.0681 25.9795ZM66.5084 28.3579L66.0299 30.6821L67.9888 31.0854L68.4674 28.7612L66.5084 28.3579ZM67.4667 31.7731C68.3414 31.3233 69.191 30.7424 70.0167 30.0382L68.7188 28.5165C67.995 29.1339 67.2724 29.624 66.552 29.9945L67.4667 31.7731ZM70.0249 30.0311C70.9726 29.2049 71.6886 28.3454 72.0673 27.4424L70.2229 26.6689C70.0092 27.1787 69.5403 27.8003 68.7106 28.5236L70.0249 30.0311ZM72.0193 27.5413C72.1926 27.2293 72.316 26.8688 72.316 26.4746H70.316C70.316 26.445 70.3255 26.4719 70.271 26.57L72.0193 27.5413ZM72.316 26.4746C72.316 25.9842 72.14 25.4685 71.6726 25.114C71.2573 24.7989 70.7532 24.7227 70.3248 24.7227V26.7227C70.43 26.7227 70.4889 26.733 70.5133 26.7391C70.5365 26.745 70.5099 26.7423 70.4638 26.7073C70.4122 26.6682 70.3664 26.6113 70.3385 26.5479C70.3133 26.4904 70.316 26.4579 70.316 26.4746H72.316ZM70.3248 24.7227C69.6281 24.7227 68.7349 24.9401 67.7121 25.2888L68.3574 27.1819C69.3398 26.847 69.9733 26.7227 70.3248 26.7227V24.7227ZM80.4734 20.835L80.1867 19.877L79.5942 20.0543L79.4882 20.6636L80.4734 20.835ZM93.8377 22.4414L92.8378 22.4308L92.8377 22.434L93.8377 22.4414ZM88.0272 31.7041L87.4002 30.925L86.8404 31.3755L87.0888 32.0498L88.0272 31.7041ZM91.992 39.873L92.6703 40.6079L93.226 40.0949L92.8837 39.4205L91.992 39.873ZM86.6258 44.6924L85.6934 45.0539L86.2129 46.3939L87.2888 45.441L86.6258 44.6924ZM82.9686 35.2588L83.9009 34.8973L83.6534 34.2588H82.9686V35.2588ZM82.9344 35.2588V34.2588H82.1009L81.9508 35.0786L82.9344 35.2588ZM81.7039 43.5303L81.9722 44.4936L82.6253 44.3117L82.6981 43.6378L81.7039 43.5303ZM76.3035 45.0342L75.3076 44.9436L75.1765 46.3861L76.5718 45.9975L76.3035 45.0342ZM77.0555 40.4883L78.0396 40.6656L78.0407 40.6596L77.0555 40.4883ZM84.7801 26.2354L84.4574 25.2888L83.9504 25.4617L83.8134 25.9795L84.7801 26.2354ZM84.2332 28.5596L85.2127 28.7612L84.2332 28.5596ZM83.7547 30.8838L82.7752 30.6821L82.3539 32.7287L84.212 31.7731L83.7547 30.8838ZM86.1131 29.2773L86.7621 30.0382L86.7702 30.0311L86.1131 29.2773ZM87.8904 27.0557L87.0163 26.57L86.9895 26.6182L86.9682 26.6689L87.8904 27.0557ZM80.7602 21.793C84.2959 20.7345 87.1181 20.2285 89.2576 20.2285V18.2285C86.8399 18.2285 83.8059 18.7935 80.1867 19.877L80.7602 21.793ZM89.2576 20.2285C90.7113 20.2285 91.6179 20.4873 92.1355 20.8504C92.5855 21.1661 92.8462 21.6327 92.8378 22.4308L94.8376 22.452C94.8519 21.1082 94.3607 19.9683 93.284 19.2131C92.2749 18.5052 90.8801 18.2285 89.2576 18.2285V20.2285ZM92.8377 22.434C92.8182 25.0668 91.1581 27.901 87.4002 30.925L88.6541 32.4832C92.5981 29.3093 94.8116 25.9683 94.8377 22.4488L92.8377 22.434ZM87.0888 32.0498C87.4335 32.9853 88.7915 35.7759 91.1003 40.3256L92.8837 39.4205C90.5441 34.81 89.2589 32.1546 88.9655 31.3584L87.0888 32.0498ZM91.3137 39.1382C90.1366 40.2248 88.3541 41.8257 85.9627 43.9438L87.2888 45.441C89.6826 43.3208 91.4776 41.7088 92.6703 40.6079L91.3137 39.1382ZM87.5582 44.3309L83.9009 34.8973L82.0362 35.6203L85.6934 45.0539L87.5582 44.3309ZM82.9686 34.2588H82.9344V36.2588H82.9686V34.2588ZM81.9508 35.0786C81.4003 38.0833 80.9862 40.865 80.7097 43.4228L82.6981 43.6378C82.9685 41.1369 83.3747 38.4043 83.918 35.439L81.9508 35.0786ZM81.4356 42.5669L76.0352 44.0708L76.5718 45.9975L81.9722 44.4936L81.4356 42.5669ZM77.2994 45.1247C77.34 44.6785 77.5798 43.2179 78.0396 40.6656L76.0713 40.311C75.6197 42.8173 75.3582 44.3873 75.3076 44.9436L77.2994 45.1247ZM78.0407 40.6596L81.4587 21.0063L79.4882 20.6636L76.0703 40.3169L78.0407 40.6596ZM83.8134 25.9795C83.6036 26.7719 83.417 27.5647 83.2537 28.3579L85.2127 28.7612C85.3684 28.0049 85.5464 27.2483 85.7468 26.4912L83.8134 25.9795ZM83.2537 28.3579L82.7752 30.6821L84.7341 31.0854L85.2127 28.7612L83.2537 28.3579ZM84.212 31.7731C85.0867 31.3233 85.9364 30.7424 86.762 30.0382L85.4641 28.5165C84.7403 29.1339 84.0177 29.624 83.2973 29.9945L84.212 31.7731ZM86.7702 30.0311C87.7179 29.2049 88.4339 28.3454 88.8126 27.4424L86.9682 26.6689C86.7545 27.1787 86.2856 27.8003 85.456 28.5236L86.7702 30.0311ZM88.7646 27.5413C88.938 27.2293 89.0613 26.8688 89.0613 26.4746H87.0613C87.0613 26.445 87.0708 26.4719 87.0163 26.57L88.7646 27.5413ZM89.0613 26.4746C89.0613 25.9842 88.8853 25.4685 88.4179 25.114C88.0027 24.7989 87.4985 24.7227 87.0701 24.7227V26.7227C87.1754 26.7227 87.2342 26.733 87.2586 26.7391C87.2818 26.745 87.2552 26.7423 87.2091 26.7073C87.1576 26.6682 87.1117 26.6113 87.0839 26.5479C87.0586 26.4904 87.0613 26.4579 87.0613 26.4746H89.0613ZM87.0701 24.7227C86.3734 24.7227 85.4803 24.9401 84.4574 25.2888L85.1028 27.1819C86.0851 26.847 86.7186 26.7227 87.0701 26.7227V24.7227ZM101.867 25.9619L101.711 24.9742L101.074 25.0751L100.903 25.696L101.867 25.9619ZM101.389 27.9102L100.411 27.7006L100.408 27.714L101.389 27.9102ZM101.013 29.79L100.032 29.5939L99.7341 31.0841L101.221 30.7682L101.013 29.79ZM106.481 28.6279L107.479 28.693L107.565 27.3753L106.274 27.6498L106.481 28.6279ZM106.174 33.3447L106.347 34.3297L107.121 34.1939L107.172 33.4098L106.174 33.3447ZM100.056 34.541L99.8308 33.5666L99.2017 33.7118L99.0751 34.3449L100.056 34.541ZM99.8164 35.9082L100.801 36.0849L100.803 36.0707L100.805 36.0565L99.8164 35.9082ZM99.5771 37.2412L98.5929 37.0645L98.3478 38.4302L99.7208 38.2308L99.5771 37.2412ZM105.935 36.3184L106.932 36.3881L107.019 35.1505L105.791 35.3287L105.935 36.3184ZM105.49 42.6758L105.573 43.6723L106.428 43.6011L106.488 42.7455L105.49 42.6758ZM93.0146 45.0342L92.0281 44.8705L91.7766 46.3862L93.2644 46.0025L93.0146 45.0342ZM97.082 20.5273L96.9394 19.5376L96.2153 19.6419L96.0955 20.3636L97.082 20.5273ZM108.464 18.8867L109.461 18.9568L109.548 17.7201L108.321 17.8969L108.464 18.8867ZM108.02 25.21L108.111 26.2058L108.957 26.128L109.017 25.2801L108.02 25.21ZM100.903 25.696C100.716 26.3745 100.552 27.0428 100.411 27.7006L102.366 28.1197C102.499 27.5015 102.654 26.8709 102.831 26.2278L100.903 25.696ZM100.408 27.714L100.032 29.5939L101.993 29.9862L102.369 28.1063L100.408 27.714ZM101.221 30.7682L106.689 29.6061L106.274 27.6498L100.805 28.8119L101.221 30.7682ZM105.484 28.5629L105.176 33.2796L107.172 33.4098L107.479 28.693L105.484 28.5629ZM106.001 32.3598C103.397 32.8167 101.337 33.219 99.8308 33.5666L100.281 35.5154C101.736 35.1794 103.756 34.7842 106.347 34.3297L106.001 32.3598ZM99.0751 34.3449C98.9808 34.8163 98.8982 35.288 98.8275 35.7599L100.805 36.0565C100.871 35.6169 100.948 35.1771 101.036 34.7371L99.0751 34.3449ZM98.8321 35.7315L98.5929 37.0645L100.561 37.4179L100.801 36.0849L98.8321 35.7315ZM99.7208 38.2308L106.078 37.308L105.791 35.3287L99.4335 36.2516L99.7208 38.2308ZM104.937 36.2486L104.493 42.6061L106.488 42.7455L106.932 36.3881L104.937 36.2486ZM105.407 41.6792C102.047 41.9592 97.8279 42.76 92.7649 44.0659L93.2644 46.0025C98.273 44.7107 102.371 43.9392 105.573 43.6723L105.407 41.6792ZM94.0012 45.1979L98.0685 20.6911L96.0955 20.3636L92.0281 44.8705L94.0012 45.1979ZM97.2247 21.5171L108.607 19.8765L108.321 17.8969L96.9394 19.5376L97.2247 21.5171ZM107.466 18.8166L107.022 25.1399L109.017 25.2801L109.461 18.9568L107.466 18.8166ZM107.928 24.2142C105.677 24.4209 103.604 24.674 101.711 24.9742L102.024 26.9496C103.867 26.6573 105.896 26.4092 108.111 26.2058L107.928 24.2142ZM113.178 20.9717L112.98 19.9915L112.311 20.1268L112.193 20.7988L113.178 20.9717ZM119.091 19.7754L120.089 19.8398L120.173 18.5362L118.893 18.7952L119.091 19.7754ZM119.33 30.9521L120.327 30.8677L120.326 30.8651L119.33 30.9521ZM119.843 34.1992L118.879 34.4669L120.828 34.371L119.843 34.1992ZM122.167 20.8691L121.984 19.886L121.301 20.0131L121.182 20.6974L122.167 20.8691ZM128.046 19.7754L129.014 20.0264L129.409 18.5047L127.863 18.7923L128.046 19.7754ZM123.398 43.5303L123.666 44.4936L124.318 44.3119L124.392 43.6385L123.398 43.5303ZM117.997 45.0342L117.103 45.4814L117.471 46.2187L118.266 45.9975L117.997 45.0342ZM117.553 43.8379L116.609 44.1694L116.613 44.1796L117.553 43.8379ZM115.776 38.7793L116.719 38.4478L116.716 38.4397L115.776 38.7793ZM115.263 37.207L116.243 37.0109L114.278 37.0318L115.263 37.207ZM114.135 45.0342L114.422 45.992L115.058 45.8013L115.129 45.1417L114.135 45.0342ZM108.666 46.6748L107.681 46.5019L107.401 48.0984L108.954 47.6326L108.666 46.6748ZM113.376 21.9518L119.289 20.7555L118.893 18.7952L112.98 19.9915L113.376 21.9518ZM118.093 19.711C118.045 20.4496 118.023 21.4774 118.023 22.7832H120.023C120.023 21.4913 120.045 20.5139 120.089 19.8398L118.093 19.711ZM118.023 22.7832C118.023 25.9028 118.126 28.6559 118.334 31.0392L120.326 30.8651C120.125 28.5544 120.023 25.8616 120.023 22.7832H118.023ZM118.334 31.0366C118.45 32.4115 118.628 33.5624 118.879 34.4669L120.806 33.9316C120.602 33.1954 120.438 32.1816 120.327 30.8677L118.334 31.0366ZM120.828 34.371L123.152 21.0409L121.182 20.6974L118.858 34.0275L120.828 34.371ZM122.35 21.8523L128.229 20.7585L127.863 18.7923L121.984 19.886L122.35 21.8523ZM127.078 19.5243C124.701 28.6916 123.14 36.6599 122.404 43.4221L124.392 43.6385C125.114 37.0022 126.652 29.1339 129.014 20.0264L127.078 19.5243ZM123.129 42.5669L117.729 44.0708L118.266 45.9975L123.666 44.4936L123.129 42.5669ZM118.892 44.587C118.913 44.6296 118.92 44.6518 118.89 44.5748C118.871 44.5246 118.843 44.4512 118.807 44.3527C118.734 44.1566 118.629 43.8715 118.493 43.4961L116.613 44.1796C116.75 44.5562 116.856 44.8465 116.932 45.0491C116.991 45.2082 117.06 45.3956 117.103 45.4814L118.892 44.587ZM118.496 43.5064L116.719 38.4478L114.832 39.1108L116.609 44.1694L118.496 43.5064ZM116.716 38.4397C116.411 37.596 116.271 37.1497 116.243 37.0109L114.282 37.4031C114.346 37.7201 114.547 38.322 114.835 39.1189L116.716 38.4397ZM114.278 37.0318C113.796 39.7415 113.417 42.3731 113.141 44.9267L115.129 45.1417C115.4 42.6366 115.773 40.0502 116.247 37.3822L114.278 37.0318ZM113.848 44.0764L108.379 45.717L108.954 47.6326L114.422 45.992L113.848 44.0764ZM109.651 46.8477L114.163 21.1446L112.193 20.7988L107.681 46.5019L109.651 46.8477ZM131.188 20.835L130.874 19.8855L130.238 20.0956L130.19 20.7637L131.188 20.835ZM142.536 21.1426L143.253 20.4463L143.248 20.4408L143.243 20.4355L142.536 21.1426ZM144.45 29.2432L143.475 29.0183L143.473 29.0268L144.45 29.2432ZM138.161 39.7705L138.831 40.5125L138.834 40.51L138.161 39.7705ZM127.121 45.0342L126.125 44.9436L126.012 46.1858L127.249 46.0259L127.121 45.0342ZM127.838 40.5566L128.823 40.7284L128.824 40.728L127.838 40.5566ZM130.573 24.834L131.558 25.0053L131.559 24.9968L130.573 24.834ZM136.076 26.4746L136.034 25.4755L135.275 25.5074L135.102 26.2461L136.076 26.4746ZM133.683 39.1553L132.692 39.0194L132.305 41.8437L134.372 39.8803L133.683 39.1553ZM137.34 34.6436L136.494 34.1103L136.493 34.1125L137.34 34.6436ZM131.502 21.7845C134.067 20.9367 136.176 20.5361 137.853 20.5361V18.5361C135.884 18.5361 133.549 19.0015 130.874 19.8855L131.502 21.7845ZM137.853 20.5361C139.735 20.5361 141.004 21.0249 141.828 21.8497L143.243 20.4355C141.925 19.1183 140.072 18.5361 137.853 18.5361V20.5361ZM141.818 21.8389C143.112 23.1732 143.757 24.7781 143.757 26.7139H145.757C145.757 24.2746 144.921 22.1654 143.253 20.4463L141.818 21.8389ZM143.757 26.7139C143.757 27.4258 143.666 28.1931 143.475 29.0183L145.424 29.468C145.644 28.5159 145.757 27.597 145.757 26.7139H143.757ZM143.473 29.0268C142.633 32.8179 140.653 36.1493 137.487 39.031L138.834 40.51C142.276 37.3761 144.489 33.6892 145.426 29.4595L143.473 29.0268ZM137.49 39.0285C134.323 41.8897 130.828 43.5468 126.992 44.0424L127.249 46.0259C131.525 45.4734 135.39 43.6214 138.831 40.5125L137.49 39.0285ZM128.116 45.1247C128.157 44.6748 128.387 43.2331 128.823 40.7284L126.853 40.3849C126.424 42.8476 126.175 44.3909 126.125 44.9436L128.116 45.1247ZM128.824 40.728L131.558 25.0053L129.587 24.6626L126.853 40.3853L128.824 40.728ZM131.559 24.9968C131.941 22.6835 132.158 21.2849 132.185 20.9062L130.19 20.7637C130.172 21.023 129.979 22.2904 129.586 24.6711L131.559 24.9968ZM135.102 26.2461C134.048 30.7387 133.244 34.9967 132.692 39.0194L134.674 39.2911C135.216 35.3386 136.007 31.1428 137.049 26.7031L135.102 26.2461ZM134.372 39.8803C135.804 38.5198 137.075 36.9497 138.188 35.1746L136.493 34.1125C135.463 35.7554 134.297 37.1931 132.994 38.4303L134.372 39.8803ZM138.186 35.1769C139.55 33.0137 140.323 31.0217 140.323 29.2432H138.323C138.323 30.4724 137.774 32.0807 136.494 34.1103L138.186 35.1769ZM140.323 29.2432C140.323 28.0934 139.996 27.0509 139.16 26.3374C138.347 25.6447 137.24 25.4247 136.034 25.4755L136.118 27.4737C137.076 27.4334 137.592 27.6292 137.862 27.8593C138.108 28.0687 138.323 28.4561 138.323 29.2432H140.323ZM153.436 25.9619L153.28 24.9742L152.643 25.0751L152.472 25.696L153.436 25.9619ZM152.958 27.9102L151.98 27.7006L151.977 27.714L152.958 27.9102ZM152.582 29.79L151.601 29.5939L151.303 31.0841L152.789 30.7682L152.582 29.79ZM158.05 28.6279L159.048 28.693L159.134 27.3753L157.843 27.6498L158.05 28.6279ZM157.743 33.3447L157.916 34.3297L158.69 34.1939L158.741 33.4098L157.743 33.3447ZM151.625 34.541L151.4 33.5666L150.771 33.7118L150.644 34.3449L151.625 34.541ZM151.385 35.9082L152.37 36.0849L152.372 36.0707L152.374 36.0565L151.385 35.9082ZM151.146 37.2412L150.162 37.0645L149.917 38.4302L151.29 38.2308L151.146 37.2412ZM157.504 36.3184L158.501 36.3881L158.588 35.1505L157.36 35.3287L157.504 36.3184ZM157.059 42.6758L157.142 43.6723L157.997 43.6011L158.057 42.7455L157.059 42.6758ZM144.584 45.0342L143.597 44.8705L143.346 46.3862L144.833 46.0025L144.584 45.0342ZM148.651 20.5273L148.508 19.5376L147.784 19.6419L147.664 20.3636L148.651 20.5273ZM160.033 18.8867L161.03 18.9568L161.117 17.7201L159.89 17.8969L160.033 18.8867ZM159.588 25.21L159.68 26.2058L160.526 26.128L160.586 25.2801L159.588 25.21ZM152.472 25.696C152.285 26.3745 152.121 27.0428 151.98 27.7006L153.935 28.1197C154.068 27.5015 154.223 26.8709 154.4 26.2278L152.472 25.696ZM151.977 27.714L151.601 29.5939L153.562 29.9862L153.938 28.1063L151.977 27.714ZM152.789 30.7682L158.258 29.6061L157.843 27.6498L152.374 28.8119L152.789 30.7682ZM157.053 28.5629L156.745 33.2796L158.741 33.4098L159.048 28.693L157.053 28.5629ZM157.57 32.3598C154.966 32.8167 152.906 33.219 151.4 33.5666L151.849 35.5154C153.305 35.1794 155.325 34.7842 157.916 34.3297L157.57 32.3598ZM150.644 34.3449C150.55 34.8163 150.467 35.288 150.396 35.7599L152.374 36.0565C152.44 35.6169 152.517 35.1771 152.605 34.7371L150.644 34.3449ZM150.401 35.7315L150.162 37.0645L152.13 37.4179L152.37 36.0849L150.401 35.7315ZM151.29 38.2308L157.647 37.308L157.36 35.3287L151.002 36.2516L151.29 38.2308ZM156.506 36.2486L156.062 42.6061L158.057 42.7455L158.501 36.3881L156.506 36.2486ZM156.976 41.6792C153.616 41.9592 149.397 42.76 144.334 44.0659L144.833 46.0025C149.842 44.7107 153.94 43.9392 157.142 43.6723L156.976 41.6792ZM145.57 45.1979L149.637 20.6911L147.664 20.3636L143.597 44.8705L145.57 45.1979ZM148.794 21.5171L160.175 19.8765L159.89 17.8969L148.508 19.5376L148.794 21.5171ZM159.035 18.8166L158.591 25.1399L160.586 25.2801L161.03 18.9568L159.035 18.8166ZM159.497 24.2142C157.246 24.4209 155.173 24.674 153.28 24.9742L153.593 26.9496C155.436 26.6573 157.465 26.4092 159.68 26.2058L159.497 24.2142ZM164.2 20.835L163.913 19.877L163.321 20.0543L163.215 20.6636L164.2 20.835ZM177.564 22.4414L176.564 22.4308L176.564 22.434L177.564 22.4414ZM171.754 31.7041L171.127 30.925L170.567 31.3755L170.815 32.0498L171.754 31.7041ZM175.719 39.873L176.397 40.6079L176.953 40.0949L176.61 39.4205L175.719 39.873ZM170.352 44.6924L169.42 45.0539L169.939 46.3939L171.015 45.441L170.352 44.6924ZM166.695 35.2588L167.628 34.8973L167.38 34.2588H166.695V35.2588ZM166.661 35.2588V34.2588H165.827L165.677 35.0786L166.661 35.2588ZM165.43 43.5303L165.699 44.4936L166.352 44.3117L166.425 43.6378L165.43 43.5303ZM160.03 45.0342L159.034 44.9436L158.903 46.3861L160.298 45.9975L160.03 45.0342ZM160.782 40.4883L161.766 40.6656L161.767 40.6596L160.782 40.4883ZM168.507 26.2354L168.184 25.2888L167.677 25.4617L167.54 25.9795L168.507 26.2354ZM167.96 28.5596L168.939 28.7612L167.96 28.5596ZM167.481 30.8838L166.502 30.6821L166.08 32.7287L167.939 31.7731L167.481 30.8838ZM169.84 29.2773L170.489 30.0382L170.497 30.0311L169.84 29.2773ZM171.617 27.0557L170.743 26.57L170.716 26.6182L170.695 26.6689L171.617 27.0557ZM164.487 21.793C168.022 20.7345 170.845 20.2285 172.984 20.2285V18.2285C170.566 18.2285 167.532 18.7935 163.913 19.877L164.487 21.793ZM172.984 20.2285C174.438 20.2285 175.344 20.4873 175.862 20.8504C176.312 21.1661 176.573 21.6327 176.564 22.4308L178.564 22.452C178.578 21.1082 178.087 19.9683 177.011 19.2131C176.001 18.5052 174.607 18.2285 172.984 18.2285V20.2285ZM176.564 22.434C176.545 25.0668 174.885 27.901 171.127 30.925L172.381 32.4832C176.325 29.3093 178.538 25.9683 178.564 22.4488L176.564 22.434ZM170.815 32.0498C171.16 32.9853 172.518 35.7759 174.827 40.3256L176.61 39.4205C174.271 34.81 172.985 32.1546 172.692 31.3584L170.815 32.0498ZM175.04 39.1382C173.863 40.2248 172.081 41.8257 169.689 43.9438L171.015 45.441C173.409 43.3208 175.204 41.7088 176.397 40.6079L175.04 39.1382ZM171.285 44.3309L167.628 34.8973L165.763 35.6203L169.42 45.0539L171.285 44.3309ZM166.695 34.2588H166.661V36.2588H166.695V34.2588ZM165.677 35.0786C165.127 38.0833 164.713 40.865 164.436 43.4228L166.425 43.6378C166.695 41.1369 167.101 38.4043 167.645 35.439L165.677 35.0786ZM165.162 42.5669L159.762 44.0708L160.298 45.9975L165.699 44.4936L165.162 42.5669ZM161.026 45.1247C161.067 44.6785 161.306 43.2179 161.766 40.6656L159.798 40.311C159.346 42.8173 159.085 44.3873 159.034 44.9436L161.026 45.1247ZM161.767 40.6596L165.185 21.0063L163.215 20.6636L159.797 40.3169L161.767 40.6596ZM167.54 25.9795C167.33 26.7719 167.144 27.5647 166.98 28.3579L168.939 28.7612C169.095 28.0049 169.273 27.2483 169.473 26.4912L167.54 25.9795ZM166.98 28.3579L166.502 30.6821L168.461 31.0854L168.939 28.7612L166.98 28.3579ZM167.939 31.7731C168.813 31.3233 169.663 30.7424 170.489 30.0382L169.191 28.5165C168.467 29.1339 167.744 29.624 167.024 29.9945L167.939 31.7731ZM170.497 30.0311C171.444 29.2049 172.161 28.3454 172.539 27.4424L170.695 26.6689C170.481 27.1787 170.012 27.8003 169.183 28.5236L170.497 30.0311ZM172.491 27.5413C172.665 27.2293 172.788 26.8688 172.788 26.4746H170.788C170.788 26.445 170.797 26.4719 170.743 26.57L172.491 27.5413ZM172.788 26.4746C172.788 25.9842 172.612 25.4685 172.144 25.114C171.729 24.7989 171.225 24.7227 170.797 24.7227V26.7227C170.902 26.7227 170.961 26.733 170.985 26.7391C171.008 26.745 170.982 26.7423 170.936 26.7073C170.884 26.6682 170.838 26.6113 170.81 26.5479C170.785 26.4904 170.788 26.4579 170.788 26.4746H172.788ZM170.797 24.7227C170.1 24.7227 169.207 24.9401 168.184 25.2888L168.829 27.1819C169.812 26.847 170.445 26.7227 170.797 26.7227V24.7227Z" fill="#D1941C"/>
</g>
<defs>
<clipPath id="clip0">
<path d="M0 0H200V70H0V0Z" fill="white"/>
</clipPath>
</defs>
</svg>
