<svg xmlns="http://www.w3.org/2000/svg" width="180" height="70" fill="none"><rect id="backgroundrect" width="100%" height="100%" x="0" y="0" fill="none" stroke="none"/>





<g class="currentLayer" style=""><title>Layer 1</title><rect width="180" height="70" rx="10" fill="#BDBDBD" id="svg_1"/><rect width="180" height="65" rx="10" fill="white" id="svg_2" class=""/><path fill-rule="evenodd" clip-rule="evenodd" d="M146 22C144.895 22 144 22.8954 144 24V40C144 41.1046 144.895 42 146 42H147C148.105 42 149 41.1046 149 40V24C149 22.8954 148.105 22 147 22H146ZM157 22C155.895 22 155 22.8954 155 24V40C155 41.1046 155.895 42 157 42H158C159.105 42 160 41.1046 160 40V24C160 22.8954 159.105 22 158 22H157Z" fill="#4F4F4F" id="svg_3"/><rect x="5" y="5" width="119" height="55" rx="6" fill="#DBDBDB" id="svg_4" class=""/></g></svg>