<svg xmlns="http://www.w3.org/2000/svg" width="180" height="52.113821415570555" fill="none"><rect id="backgroundrect" width="100%" height="100%" x="0" y="0" fill="none" stroke="none" class="selected" style=""/>





<g class="currentLayer" style=""><title>Layer 1</title><rect width="180" height="50" rx="10" fill="#BDBDBD" id="svg_1"/><rect width="180" height="45" rx="5" fill="white" id="svg_2" class=""/><path fill-rule="evenodd" clip-rule="evenodd" d="M146,13.056910574436188 C144.895,13.056910574436188 144,13.95231057443619 144,15.056910574436188 V31.056910574436188 C144,32.161510574436186 144.895,33.05691057443619 146,33.05691057443619 H147 C148.105,33.05691057443619 149,32.161510574436186 149,31.056910574436188 V15.056910574436188 C149,13.95231057443619 148.105,13.056910574436188 147,13.056910574436188 H146 zM157,13.056910574436188 C155.895,13.056910574436188 155,13.95231057443619 155,15.056910574436188 V31.056910574436188 C155,32.161510574436186 155.895,33.05691057443619 157,33.05691057443619 H158 C159.105,33.05691057443619 160,32.161510574436186 160,31.056910574436188 V15.056910574436188 C160,13.95231057443619 159.105,13.056910574436188 158,13.056910574436188 H157 z" fill="#4F4F4F" id="svg_3" class=""/><rect x="3" y="5" width="119" height="35" rx="3" fill="#DBDBDB" id="svg_4" class=""/></g></svg>